<?xml version="1.0" encoding="UTF-8"?>
<svg version="1.1" xmlns="http://www.w3.org/2000/svg" width="500" height="500">
<path d="M0 0 C4.938845 0.54608598 8.78993405 2.18101779 13.125 4.48046875 C14.54952906 5.21386313 15.97537323 5.94470723 17.40234375 6.67333984 C18.15112793 7.055849 18.89991211 7.43835815 19.67138672 7.8324585 C23.63813471 9.82134302 27.66061458 11.68741809 31.6875 13.55078125 C32.51905106 13.93586853 33.35060211 14.32095581 34.20735168 14.7177124 C36.80398423 15.91797195 39.40194717 17.11531831 42 18.3125 C43.83040638 19.15818386 45.6607278 20.00405161 47.4909668 20.85009766 C57.84555072 25.63416116 68.20978337 30.39698331 78.58227539 35.14208984 C96.21419828 43.21159831 113.7915668 51.38321799 131.24951172 59.82299805 C138.02500507 63.08650373 144.85203684 66.19418014 151.74414062 69.20214844 C157.29408144 71.6407588 162.69876829 74.31375609 168.09716797 77.0690918 C172.72449099 79.41270362 177.41674991 81.52868101 182.1875 83.5625 C200.2971158 91.2971158 200.2971158 91.2971158 204 95 C204.11561644 97.25537775 204.15973639 99.51443187 204.17700195 101.77270508 C204.18357315 102.48199661 204.19014435 103.19128815 204.19691467 103.92207336 C204.21673607 106.28789375 204.22834528 108.6536496 204.23828125 111.01953125 C204.24235678 111.83212591 204.2464323 112.64472057 204.25063133 113.48193932 C204.2715544 117.80379357 204.28581479 122.12561573 204.29516602 126.44750977 C204.30394076 129.99033262 204.32459945 133.53275227 204.35668945 137.07543945 C204.65608712 170.84543903 202.72915849 203.23264738 177.9453125 228.94921875 C175.95444444 230.95565392 175.95444444 230.95565392 174.3671875 233.26953125 C173.91601562 233.84058594 173.46484375 234.41164063 173 235 C172.34 235 171.68 235 171 235 C171 235.66 171 236.32 171 237 C168.74592092 238.95981288 166.4867439 240.80400764 164.125 242.625 C163.14853516 243.3984375 163.14853516 243.3984375 162.15234375 244.1875 C157.26064401 248 157.26064401 248 155 248 C155 248.66 155 249.32 155 250 C156.175625 250.350625 157.35125 250.70125 158.5625 251.0625 C162.78867009 252.47258973 166.76078316 254.22415052 170.7890625 256.125 C171.43675095 256.42970718 172.08443939 256.73441437 172.75175476 257.0483551 C174.83576564 258.02958539 176.91800621 259.01449789 179 260 C180.39471841 260.65889341 181.78949382 261.31766618 183.18432617 261.97631836 C183.87866257 262.30429916 184.57299896 262.63227997 185.28837585 262.97019958 C188.08975201 264.29316581 190.89158627 265.61515977 193.69360352 266.93676758 C195.1300712 267.61519609 196.56592518 268.29492524 198.0012207 268.97583008 C200.10983593 269.97571648 202.22068159 270.97074712 204.33203125 271.96484375 C204.9746138 272.27099106 205.61719635 272.57713837 206.2792511 272.89256287 C209.50032687 274.48693348 209.50032687 274.48693348 213 275 C213.495 162.14 213.495 162.14 214 47 C204.25045616 51.3331306 194.8564127 55.56825575 185.37890625 60.3125 C184.26386719 60.869375 183.14882813 61.42625 182 62 C181.40171387 62.30808594 180.80342773 62.61617187 180.18701172 62.93359375 C178.36711698 63.86110024 176.53128428 64.74612616 174.6875 65.625 C173.08455078 66.41777344 173.08455078 66.41777344 171.44921875 67.2265625 C163.8447476 68.93175535 156.16094214 63.82879508 149.4375 60.5625 C148.63892578 60.18029297 147.84035156 59.79808594 147.01757812 59.40429688 C141.98515484 56.98856964 136.98708453 54.50782372 132 52 C132 51.34 132 50.68 132 50 C134.85379037 48.64503939 137.70810969 47.29119625 140.5625 45.9375 C141.34302734 45.56689453 142.12355469 45.19628906 142.92773438 44.81445312 C147.99033977 42.41425375 153.06227742 40.03465762 158.140625 37.66796875 C163.4051082 35.21444182 168.6642958 32.75002938 173.91796875 30.2734375 C174.58509888 29.9589566 175.252229 29.64447571 175.9395752 29.32046509 C177.31461693 28.67221415 178.6896473 28.02393909 180.06466675 27.37564087 C191.84159786 21.82434353 203.62832793 16.29490113 215.4375 10.8125 C216.54826904 10.29671387 217.65903809 9.78092773 218.8034668 9.24951172 C220.87679282 8.2883966 222.9511968 7.3296022 225.02685547 6.37353516 C227.06106623 5.4337692 229.09117562 4.48508815 231.11767578 3.52880859 C232.10106934 3.06941895 233.08446289 2.6100293 234.09765625 2.13671875 C235.40682007 1.5192981 235.40682007 1.5192981 236.74243164 0.8894043 C239 0 239 0 242 0 C242 106.59 242 213.18 242 323 C234.18690602 321.88384372 234.18690602 321.88384372 229.6875 319.4375 C223.78831563 316.3506312 217.77689727 313.63196663 211.6706543 310.98022461 C207.81122666 309.29207645 204.01405974 307.52889304 200.25390625 305.62890625 C194.25986434 302.60018604 188.16288265 299.80669046 182.0625 297 C171.14011523 291.96088628 160.29082627 286.78801445 149.46972656 281.53417969 C143.13666891 278.47136426 136.77096166 275.53746297 130.3125 272.75 C123.14251111 269.64631671 116.41297257 265.99365604 109.66015625 262.07421875 C106.53293406 260.26977188 103.3389358 258.7075879 100.0625 257.1875 C76.51613307 245.55808675 56.55591143 226.10323751 46 202 C45.63519531 201.23042969 45.27039063 200.46085938 44.89453125 199.66796875 C38.50780041 185.30394192 37.41258598 170.21341668 37.609375 154.7421875 C37.61686275 152.97430064 37.62254363 151.20640531 37.62652588 149.43850708 C37.64158336 144.85178502 37.68068557 140.26559372 37.7253418 135.67907715 C37.76673157 130.97232233 37.78462886 126.26547925 37.8046875 121.55859375 C37.8472057 112.3721664 37.91520586 103.18612783 38 94 C52.65135783 86.62763885 52.65135783 86.62763885 59.421875 83.54296875 C60.64328081 82.98253442 61.8646337 82.42198472 63.0859375 81.86132812 C64.94163438 81.01274687 66.79799125 80.16566287 68.65527344 79.32055664 C70.49589512 78.4818672 72.33393097 77.63750999 74.171875 76.79296875 C75.2453418 76.3033667 76.31880859 75.81376465 77.42480469 75.30932617 C80.07974458 74.12681448 80.07974458 74.12681448 82 72 C80.8346875 71.47792969 79.669375 70.95585937 78.46875 70.41796875 C68.75622581 66.06068583 59.05728572 61.67409006 49.375 57.25 C48.39337891 56.80293701 47.41175781 56.35587402 46.40039062 55.89526367 C44.97629883 55.24328003 44.97629883 55.24328003 43.5234375 54.578125 C42.284729 54.01206543 42.284729 54.01206543 41.02099609 53.43457031 C36.64766677 51.35782204 32.33025567 49.16512783 28 47 C28.33 122.57 28.66 198.14 29 276 C37.25 272.04 45.5 268.08 54 264 C76.30449688 253.53054228 76.30449688 253.53054228 81 254 C83.04541016 254.91455078 83.04541016 254.91455078 85.0390625 256.1953125 C85.77979004 256.66155029 86.52051758 257.12778809 87.28369141 257.6081543 C88.44263916 258.35899292 88.44263916 258.35899292 89.625 259.125 C91.22790355 260.13611975 92.8320692 261.14524153 94.4375 262.15234375 C95.21480469 262.64202637 95.99210937 263.13170898 96.79296875 263.63623047 C101.08686406 266.28951578 105.52625385 268.66458626 110 271 C107.8225376 274.2661936 106.79455059 274.81632254 103.3359375 276.41796875 C102.38589844 276.86398437 101.43585938 277.31 100.45703125 277.76953125 C99.43996094 278.23746094 98.42289062 278.70539063 97.375 279.1875 C95.27808191 280.16936949 93.18173016 281.15244934 91.0859375 282.13671875 C89.53471191 282.8625415 89.53471191 282.8625415 87.95214844 283.60302734 C83.30514145 285.80201626 78.71729803 288.11355801 74.13818359 290.44995117 C70.15469647 292.46927357 66.11748126 294.27184341 62 296 C53.97309361 299.42031071 46.02646334 302.91305312 38.25 306.875 C28.98800365 311.59291631 19.50202944 315.79260439 10 320 C8.30067591 320.75497127 6.60145298 321.5101703 4.90234375 322.265625 C3.6015625 322.84375 2.30078125 323.421875 1 324 C-1 322 -1 322 -1.24954766 319.70961767 C-1.24933029 318.74295705 -1.24911292 317.77629643 -1.24888897 316.78034306 C-1.25348777 315.66700787 -1.25808656 314.55367268 -1.26282471 313.40660006 C-1.25768115 312.17325959 -1.25253759 310.93991913 -1.24723816 309.66920471 C-1.24965257 308.36695936 -1.25206699 307.064714 -1.25455457 305.72300667 C-1.260992 302.09617577 -1.25488153 298.46945582 -1.24679029 294.84263217 C-1.24023131 290.93595759 -1.24515784 287.02929578 -1.24867249 283.12261963 C-1.25372303 275.46434067 -1.24806203 267.80610477 -1.23882218 260.14783115 C-1.22845557 251.23639573 -1.22850792 242.32496971 -1.22899476 233.41352939 C-1.22949581 217.51648118 -1.22032256 201.61945307 -1.20581055 185.72241211 C-1.19172465 170.28425734 -1.18463964 154.84612027 -1.18530273 139.40795898 C-1.18534269 138.45732905 -1.18538265 137.50669912 -1.18542381 136.52726222 C-1.18546417 135.57830327 -1.18550452 134.62934431 -1.1855461 133.65162903 C-1.1862355 116.0957189 -1.18034812 98.5398163 -1.17139288 80.98390861 C-1.16837279 74.76712518 -1.16731288 68.55034312 -1.16686058 62.33355904 C-1.16617928 54.76013811 -1.16172633 47.18672988 -1.15252777 39.61331434 C-1.14790234 35.74669057 -1.14486701 31.88008307 -1.14612198 28.01345634 C-1.14741451 23.82821234 -1.14098524 19.6430168 -1.13371277 15.45777893 C-1.13526137 14.22666919 -1.13680997 12.99555945 -1.1384055 11.72714335 C-1.13518106 10.61120041 -1.13195661 9.49525747 -1.12863445 8.34549809 C-1.12793003 7.37867511 -1.1272256 6.41185213 -1.12649983 5.41573149 C-1 3 -1 3 0 0 Z M113.25 93.0078125 C112.59604248 93.33030975 111.94208496 93.65280701 111.26831055 93.9850769 C109.17313799 95.02061301 107.08639951 96.07191552 105 97.125 C102.27354399 98.48726323 99.54371493 99.84261916 96.8125 101.1953125 C96.14436279 101.52766907 95.47622559 101.86002563 94.7878418 102.20245361 C89.92619539 104.60063731 84.99867104 106.73617044 79.94140625 108.69482422 C75.80969299 110.5281691 71.92310057 112.76061069 68 115 C67.9232692 122.43401395 67.87111736 129.86792393 67.83520508 137.30224609 C67.820217 139.82572242 67.79981964 142.34917313 67.77368164 144.87255859 C67.23497198 168.8539323 67.23497198 168.8539323 74.75 191.3125 C75.10143066 191.98490723 75.45286133 192.65731445 75.81494141 193.35009766 C78.68689374 198.70702001 81.89716655 203.49792603 86 208 C86.71542969 208.80695313 87.43085938 209.61390625 88.16796875 210.4453125 C94.69026051 217.40384237 101.91551628 222.11407922 110 227 C110.9590625 227.64839844 111.918125 228.29679688 112.90625 228.96484375 C113.7621875 229.53332031 114.618125 230.10179687 115.5 230.6875 C116.2321875 231.18636719 116.964375 231.68523437 117.71875 232.19921875 C121.09573362 233.38463252 122.77327504 232.44078888 126 231 C128.31705632 229.67675219 130.528857 228.34018697 132.75 226.875 C133.36053223 226.47611572 133.97106445 226.07723145 134.60009766 225.66625977 C152.02622838 214.12276278 166.61584522 199.54664791 172.3125 178.8125 C173.85795422 170.24225389 174.14071134 161.77886428 174.09765625 153.0859375 C174.0962413 151.99028473 174.09482635 150.89463196 174.09336853 149.76577759 C174.08781771 146.30215605 174.07527459 142.83860166 174.0625 139.375 C174.05747864 137.01171969 174.05291685 134.64843836 174.04882812 132.28515625 C174.03786444 126.52341499 174.02117606 120.7617123 174 115 C165.36591283 110.63468384 156.7409274 106.31727767 147.875 102.4375 C140.71669572 99.26770993 133.69764174 95.91992936 126.75 92.3125 C121.16112482 89.6450823 118.73244084 90.19862278 113.25 93.0078125 Z " fill="#02CEAB" transform="translate(129,88)"/>
<path d="M0 0 C4.938845 0.54608598 8.78993405 2.18101779 13.125 4.48046875 C14.54952906 5.21386313 15.97537323 5.94470723 17.40234375 6.67333984 C18.15112793 7.055849 18.89991211 7.43835815 19.67138672 7.8324585 C23.63813471 9.82134302 27.66061458 11.68741809 31.6875 13.55078125 C32.51905106 13.93586853 33.35060211 14.32095581 34.20735168 14.7177124 C36.80398423 15.91797195 39.40194717 17.11531831 42 18.3125 C43.83040638 19.15818386 45.6607278 20.00405161 47.4909668 20.85009766 C57.84555072 25.63416116 68.20978337 30.39698331 78.58227539 35.14208984 C96.21419828 43.21159831 113.7915668 51.38321799 131.24951172 59.82299805 C138.02500507 63.08650373 144.85203684 66.19418014 151.74414062 69.20214844 C157.29408144 71.6407588 162.69876829 74.31375609 168.09716797 77.0690918 C172.72449099 79.41270362 177.41674991 81.52868101 182.1875 83.5625 C200.2971158 91.2971158 200.2971158 91.2971158 204 95 C204.11561644 97.25537775 204.15973639 99.51443187 204.17700195 101.77270508 C204.18357315 102.48199661 204.19014435 103.19128815 204.19691467 103.92207336 C204.21673607 106.28789375 204.22834528 108.6536496 204.23828125 111.01953125 C204.24235678 111.83212591 204.2464323 112.64472057 204.25063133 113.48193932 C204.2715544 117.80379357 204.28581479 122.12561573 204.29516602 126.44750977 C204.30394076 129.99033262 204.32459945 133.53275227 204.35668945 137.07543945 C204.65683786 170.93011746 202.62750871 203.0212613 178.04296875 228.94921875 C173.83884298 233.16942149 173.83884298 233.16942149 172 235 C172 234.01 172 233.02 172 232 C171.46375 232.495 170.9275 232.99 170.375 233.5 C167.40641555 235.37489544 165.44687573 235.23501425 162 235 C162.66 235.99 163.32 236.98 164 238 C163.67 238.66 163.34 239.32 163 240 C162.34 240 161.68 240 161 240 C161 240.66 161 241.32 161 242 C153.125 243 153.125 243 152 243 C152 244.32 152 245.64 152 247 C150.68 247 149.36 247 148 247 C148 246.34 148 245.68 148 245 C146.35 245 144.7 245 143 245 C143 244.01 143 243.02 143 242 C142.113125 242.0825 141.22625 242.165 140.3125 242.25 C136.25850218 241.9440379 135.01067069 240.61452981 132 238 C131.278125 237.835 130.55625 237.67 129.8125 237.5 C128 237 128 237 126.75 234.9375 C126.5025 234.298125 126.255 233.65875 126 233 C128.47379368 230.52620632 130.6928935 230.03347078 134 229 C134.66 228.67 135.32 228.34 136 228 C136 228.66 136 229.32 136 230 C138.50965614 229.29660434 138.50965614 229.29660434 141 228 C141.3721042 226.67696283 141.70630173 225.34262065 142 224 C144 222.875 144 222.875 146 222 C146.33 221.34 146.66 220.68 147 220 C147.66 220 148.32 220 149 220 C150.32 217.69 151.64 215.38 153 213 C153.66 213 154.32 213 155 213 C154.938125 212.25363281 154.87625 211.50726563 154.8125 210.73828125 C155.03896684 207.43092174 155.79757672 206.60131659 158 204.1875 C161.42660127 200.02812249 163.91034029 195.7312739 166.3125 190.9375 C166.64958984 190.27709717 166.98667969 189.61669434 167.33398438 188.9362793 C172.91947023 177.54668377 173.15950714 165.57378302 173.09765625 153.0859375 C173.0962413 151.99028473 173.09482635 150.89463196 173.09336853 149.76577759 C173.08781771 146.30215605 173.07527459 142.83860166 173.0625 139.375 C173.05747864 137.01171969 173.05291685 134.64843836 173.04882812 132.28515625 C173.03786444 126.52341499 173.02117606 120.7617123 173 115 C169.46737582 113.35619528 165.93420725 111.71356569 162.40078735 110.07147217 C160.50002728 109.18751269 158.599961 108.30207465 156.69995117 107.41650391 C150.42976745 104.49755087 144.15004058 101.60713853 137.83203125 98.79296875 C136.73117187 98.29966064 135.6303125 97.80635254 134.49609375 97.2980957 C132.40230366 96.36215226 130.3047168 95.43464875 128.203125 94.51635742 C126.79740234 93.88564331 126.79740234 93.88564331 125.36328125 93.2421875 C124.54126221 92.8797998 123.71924316 92.51741211 122.87231445 92.14404297 C121 91 121 91 120 88 C119.278125 87.896875 118.55625 87.79375 117.8125 87.6875 C115 87 115 87 112.890625 85.7109375 C109.04894033 83.43707549 105.02680803 81.71646451 100.9375 79.9375 C99.34208656 79.23910616 97.7470222 78.53991421 96.15234375 77.83984375 C95.45101318 77.53425537 94.74968262 77.22866699 94.02709961 76.91381836 C92.63401835 76.28581605 91.2623393 75.60878362 89.91235352 74.89282227 C87.51241232 73.77235948 85.61636266 73.85464652 83 74 C82.67 73.34 82.34 72.68 82 72 C80.37921618 71.0580597 80.37921618 71.0580597 78.37109375 70.22265625 C77.20682861 69.70783691 77.20682861 69.70783691 76.01904297 69.18261719 C75.16713379 68.81297852 74.31522461 68.44333984 73.4375 68.0625 C71.61549653 67.25738992 69.79389976 66.45135897 67.97265625 65.64453125 C67.00473145 65.21736816 66.03680664 64.79020508 65.03955078 64.35009766 C59.80002596 62.02282278 54.58737265 59.63732449 49.375 57.25 C48.39329834 56.80277588 47.41159668 56.35555176 46.40014648 55.89477539 C45.45083252 55.46028076 44.50151855 55.02578613 43.5234375 54.578125 C42.284729 54.01206543 42.284729 54.01206543 41.02099609 53.43457031 C36.64766677 51.35782204 32.33025567 49.16512783 28 47 C28.33 122.57 28.66 198.14 29 276 C37.25 272.04 45.5 268.08 54 264 C76.30449688 253.53054228 76.30449688 253.53054228 81 254 C83.04541016 254.91455078 83.04541016 254.91455078 85.0390625 256.1953125 C85.77979004 256.66155029 86.52051758 257.12778809 87.28369141 257.6081543 C88.44263916 258.35899292 88.44263916 258.35899292 89.625 259.125 C91.22790355 260.13611975 92.8320692 261.14524153 94.4375 262.15234375 C95.21480469 262.64202637 95.99210937 263.13170898 96.79296875 263.63623047 C101.08686406 266.28951578 105.52625385 268.66458626 110 271 C107.8225376 274.2661936 106.79455059 274.81632254 103.3359375 276.41796875 C102.38589844 276.86398437 101.43585938 277.31 100.45703125 277.76953125 C99.43996094 278.23746094 98.42289062 278.70539063 97.375 279.1875 C95.27808191 280.16936949 93.18173016 281.15244934 91.0859375 282.13671875 C89.53471191 282.8625415 89.53471191 282.8625415 87.95214844 283.60302734 C83.30514145 285.80201626 78.71729803 288.11355801 74.13818359 290.44995117 C70.15469647 292.46927357 66.11748126 294.27184341 62 296 C53.97309361 299.42031071 46.02646334 302.91305312 38.25 306.875 C28.98800365 311.59291631 19.50202944 315.79260439 10 320 C8.30067591 320.75497127 6.60145298 321.5101703 4.90234375 322.265625 C3.6015625 322.84375 2.30078125 323.421875 1 324 C-1 322 -1 322 -1.24954766 319.70961767 C-1.24933029 318.74295705 -1.24911292 317.77629643 -1.24888897 316.78034306 C-1.25348777 315.66700787 -1.25808656 314.55367268 -1.26282471 313.40660006 C-1.25768115 312.17325959 -1.25253759 310.93991913 -1.24723816 309.66920471 C-1.24965257 308.36695936 -1.25206699 307.064714 -1.25455457 305.72300667 C-1.260992 302.09617577 -1.25488153 298.46945582 -1.24679029 294.84263217 C-1.24023131 290.93595759 -1.24515784 287.02929578 -1.24867249 283.12261963 C-1.25372303 275.46434067 -1.24806203 267.80610477 -1.23882218 260.14783115 C-1.22845557 251.23639573 -1.22850792 242.32496971 -1.22899476 233.41352939 C-1.22949581 217.51648118 -1.22032256 201.61945307 -1.20581055 185.72241211 C-1.19172465 170.28425734 -1.18463964 154.84612027 -1.18530273 139.40795898 C-1.18534269 138.45732905 -1.18538265 137.50669912 -1.18542381 136.52726222 C-1.18546417 135.57830327 -1.18550452 134.62934431 -1.1855461 133.65162903 C-1.1862355 116.0957189 -1.18034812 98.5398163 -1.17139288 80.98390861 C-1.16837279 74.76712518 -1.16731288 68.55034312 -1.16686058 62.33355904 C-1.16617928 54.76013811 -1.16172633 47.18672988 -1.15252777 39.61331434 C-1.14790234 35.74669057 -1.14486701 31.88008307 -1.14612198 28.01345634 C-1.14741451 23.82821234 -1.14098524 19.6430168 -1.13371277 15.45777893 C-1.13526137 14.22666919 -1.13680997 12.99555945 -1.1384055 11.72714335 C-1.13518106 10.61120041 -1.13195661 9.49525747 -1.12863445 8.34549809 C-1.12793003 7.37867511 -1.1272256 6.41185213 -1.12649983 5.41573149 C-1 3 -1 3 0 0 Z " fill="#02CEC3" transform="translate(129,88)"/>
<path d="M0 0 C4.97473924 0.54512468 8.85372278 2.21535371 13.21875 4.53125 C19.15837004 7.59086477 25.1394824 10.50894556 31.21875 13.28125 C31.98227783 13.62961914 32.74580566 13.97798828 33.5324707 14.33691406 C35.85397639 15.39350149 38.17693789 16.44683972 40.5 17.5 C42.1134046 18.23410397 43.72668642 18.96847782 45.33984375 19.703125 C49.22516231 21.47184673 53.11209559 23.23697008 57 25 C57 25.33 57 25.66 57 26 C54.03 26 51.06 26 48 26 C47.505 24.515 47.505 24.515 47 23 C45.68 23 44.36 23 43 23 C43 22.34 43 21.68 43 21 C37.5155733 20.25669086 37.5155733 20.25669086 32 20 C31.79375 19.38125 31.5875 18.7625 31.375 18.125 C29.45211226 15.15326441 27.31494612 15.01477942 24 14 C23.39285156 13.32324219 23.39285156 13.32324219 22.7734375 12.6328125 C20.11749591 10.18747421 16.89285589 9.18598433 13.5625 7.9375 C9.62746772 6.43103152 5.75243682 4.92648116 2 3 C2.07193542 3.90447089 2.14387083 4.80894178 2.21798611 5.74082088 C3.23438301 19.76096626 3.09285762 33.76781843 3.02172852 47.81665039 C3.01097462 50.5974443 3.00182978 53.37824298 2.99261475 56.15904236 C2.97205156 62.11359945 2.94764858 68.06813048 2.92053413 74.02266121 C2.88133834 82.63159757 2.84809426 91.24054909 2.81623887 99.84951537 C2.76437962 113.82165143 2.70779855 127.79376413 2.64819336 141.76586914 C2.59034999 155.32738336 2.53476442 168.88890379 2.48217773 182.45043945 C2.47730316 183.70723913 2.47730316 183.70723913 2.4723301 184.98942871 C2.45603878 189.19333587 2.43979145 193.39724321 2.42356598 197.60115063 C2.28919594 232.40079598 2.14713979 267.20040639 2 302 C1.67 302 1.34 302 1 302 C0.67 308.6 0.34 315.2 0 322 C-0.33 322 -0.66 322 -1 322 C-1.02287132 281.41235203 -1.04050075 240.82470489 -1.05106533 200.23705177 C-1.05231609 195.44913151 -1.05361041 190.66121126 -1.05493164 185.87329102 C-1.05519395 184.92007183 -1.05545626 183.96685265 -1.05572652 182.98474804 C-1.060082 167.5350078 -1.06796888 152.08527127 -1.0771528 136.63553324 C-1.08649272 120.79161512 -1.09205633 104.94769894 -1.09408849 89.10377818 C-1.09546301 79.32128214 -1.09980979 69.53879658 -1.10791647 59.75630376 C-1.1131881 53.05498158 -1.11480334 46.35366484 -1.11350138 39.65234073 C-1.11285866 35.78167757 -1.11386814 31.91103277 -1.11920547 28.04037285 C-1.12494081 23.85064881 -1.12299721 19.66096423 -1.12025452 15.47123718 C-1.12316736 14.2387632 -1.1260802 13.00628922 -1.12908131 11.73646754 C-1.12709026 10.61929121 -1.12509921 9.50211487 -1.12304783 8.35108471 C-1.12342755 7.38317759 -1.12380727 6.41527047 -1.1241985 5.41803282 C-1 3 -1 3 0 0 Z " fill="#6CE1E3" transform="translate(129,88)"/>
<path d="M0 0 C0 106.59 0 213.18 0 323 C-5.4794485 322.21722164 -7.91241745 321.85500985 -12.4375 319.4375 C-13.30246094 318.98246094 -14.16742188 318.52742188 -15.05859375 318.05859375 C-15.69925781 317.70925781 -16.33992188 317.35992187 -17 317 C-16.34 316.01 -15.68 315.02 -15 314 C-13.68 314.33 -12.36 314.66 -11 315 C-11.33 315.66 -11.66 316.32 -12 317 C-9.01725858 317.77330333 -6.02266703 318.40348694 -3 319 C-3.00048576 318.42310049 -3.00097152 317.84620098 -3.001472 317.25181967 C-3.03099061 280.28650048 -2.95918574 243.32274088 -2.80645666 206.35770741 C-2.77755553 199.35126913 -2.7500088 192.34482568 -2.72249681 185.33838183 C-2.67345807 172.85815267 -2.62344313 160.37792764 -2.57275391 147.89770508 C-2.52371064 135.82218636 -2.47516475 123.74666581 -2.42724609 111.67114258 C-2.4242591 110.91845995 -2.4212721 110.16577733 -2.41819459 109.39028614 C-2.40320275 105.61180602 -2.38822025 101.83332587 -2.37324238 98.05484569 C-2.25027414 67.03655793 -2.12567928 36.01827691 -2 5 C-3.66675781 5.72509766 -3.66675781 5.72509766 -5.3671875 6.46484375 C-8.02073226 7.58618041 -10.24376607 8.35687875 -13 9 C-13.825 9.350625 -14.65 9.70125 -15.5 10.0625 C-18 11 -18 11 -22 11 C-22 11.66 -22 12.32 -22 13 C-26.455 13.495 -26.455 13.495 -31 14 C-27.46663296 11.00392331 -23.4779587 9.33639698 -19.25 7.5625 C-14.82831365 5.67674419 -10.44955115 3.79310621 -6.1875 1.5625 C-3 0 -3 0 0 0 Z " fill="#5ACCB2" transform="translate(371,88)"/>
<path d="M0 0 C2.6875 0.875 2.6875 0.875 5 2 C4.67 2.99 4.34 3.98 4 5 C4.639375 5.12375 5.27875 5.2475 5.9375 5.375 C6.618125 5.58125 7.29875 5.7875 8 6 C8.33 6.66 8.66 7.32 9 8 C11.33157492 8.34541851 13.66508361 8.67794257 16 9 C16.99 9.66 17.98 10.32 19 11 C20.65583225 11.69313908 22.32110979 12.36474424 24 13 C24 13.66 24 14.32 24 15 C24.99 15 25.98 15 27 15 C27 15.66 27 16.32 27 17 C27.95712891 17.16435547 27.95712891 17.16435547 28.93359375 17.33203125 C29.75988281 17.49058594 30.58617187 17.64914063 31.4375 17.8125 C32.26121094 17.96332031 33.08492187 18.11414063 33.93359375 18.26953125 C34.95646484 18.63111328 34.95646484 18.63111328 36 19 C36.495 20.485 36.495 20.485 37 22 C39.42681908 22.95989591 39.42681908 22.95989591 42.3125 23.5625 C45.81263332 24.38963431 48.8456961 25.25426886 52 27 C52 27.99 52 28.98 52 30 C45.3929581 28.11227374 39.46703629 25.31431553 33.37255859 22.19213867 C27.92082716 19.4156416 22.39041277 16.90383809 16.75561523 14.52246094 C11.35731889 12.22372995 6.28810588 9.64405294 1 7 C1.33 82.57 1.66 158.14 2 236 C8.27 233.03 14.54 230.06 21 227 C22.32 227 23.64 227 25 227 C24.67 227.99 24.34 228.98 24 230 C22.09309387 230.73599886 20.18061666 231.4609325 18.2421875 232.109375 C15.91110293 233.03531103 14.11391314 234.19148238 12.0625 235.625 C7.8631107 238.4051126 3.96337399 238.87361779 -1 239 C-2.27405996 235.17782012 -2.13450173 231.59297071 -2.12025452 227.61108398 C-2.12110894 226.74492431 -2.12196337 225.87876463 -2.12284368 224.98635769 C-2.12449579 222.07291559 -2.11898142 219.15953058 -2.11352539 216.24609375 C-2.11324343 214.16187542 -2.11340143 212.07765699 -2.1139679 209.99343872 C-2.11425557 204.3241656 -2.10836313 198.65491351 -2.10139394 192.98564529 C-2.09515313 187.06131344 -2.09455594 181.13698112 -2.09336853 175.21264648 C-2.09025647 163.98591243 -2.08204556 152.75918808 -2.07201904 141.53245831 C-2.06086274 128.76567087 -2.05534723 115.99888299 -2.05032361 103.2320919 C-2.04059272 78.79537598 -2.02513727 54.35866718 -2.0046621 29.92195797 C-2.00219233 26.94797092 -2 23.97398824 -2 21 C-1.96519531 19.84177734 -1.96519531 19.84177734 -1.9296875 18.66015625 C-1.91164062 17.80292969 -1.89359375 16.94570312 -1.875 16.0625 C-1.84019531 14.78052734 -1.84019531 14.78052734 -1.8046875 13.47265625 C-2.01410773 10.8213961 -2.76859998 9.32052673 -4 7 C-3.8125 4.375 -3.8125 4.375 -3 2 C-2.01 1.34 -1.02 0.68 0 0 Z " fill="#3ABEC0" transform="translate(156,128)"/>
<path d="M0 0 C-0.66666667 2.66666667 -1.33333333 5.33333333 -2 8 C-2.639375 8.12375 -3.27875 8.2475 -3.9375 8.375 C-4.618125 8.58125 -5.29875 8.7875 -6 9 C-6.33 9.66 -6.66 10.32 -7 11 C-7.66 11 -8.32 11 -9 11 C-9 10.34 -9 9.68 -9 9 C-10.31722179 9.42307123 -11.62872664 9.86397486 -12.9375 10.3125 C-14.03384766 10.67794922 -14.03384766 10.67794922 -15.15234375 11.05078125 C-17.35932024 11.91240441 -17.35932024 11.91240441 -18 15 C-18.66 15 -19.32 15 -20 15 C-18.41925436 15.81752303 -16.83528777 16.62881997 -15.25 17.4375 C-13.92742187 18.11619141 -13.92742187 18.11619141 -12.578125 18.80859375 C-8.75001599 20.57764412 -6.25968857 21 -2 21 C-1.67 22.32 -1.34 23.64 -1 25 C3.67482292 26.49594333 8.35601989 26.54799337 13 25 C13.33 24.34 13.66 23.68 14 23 C15.66321482 22.64984951 17.33034549 22.31802943 19 22 C19.99 21.34 20.98 20.68 22 20 C24.6875 19.875 24.6875 19.875 27 20 C27 19.34 27 18.68 27 18 C27.99 18 28.98 18 30 18 C30 17.34 30 16.68 30 16 C30.60328125 15.80664062 31.2065625 15.61328125 31.828125 15.4140625 C32.62734375 15.15367187 33.4265625 14.89328125 34.25 14.625 C35.03890625 14.36976563 35.8278125 14.11453125 36.640625 13.8515625 C38.99853093 13.05253268 38.99853093 13.05253268 41.125 11.9375 C43.37526477 10.81236762 45.52886494 10.41185584 48 10 C48 9.34 48 8.68 48 8 C50.97 8.495 50.97 8.495 54 9 C54 85.23 54 161.46 54 240 C53.67 240 53.34 240 53 240 C53 164.1 53 88.2 53 10 C43.25045616 14.3331306 33.8564127 18.56825575 24.37890625 23.3125 C23.26386719 23.869375 22.14882813 24.42625 21 25 C20.40171387 25.30808594 19.80342773 25.61617187 19.18701172 25.93359375 C17.36711698 26.86110024 15.53128428 27.74612616 13.6875 28.625 C12.61886719 29.15351563 11.55023438 29.68203125 10.44921875 30.2265625 C2.8447476 31.93175535 -4.83905786 26.82879508 -11.5625 23.5625 C-12.36107422 23.18029297 -13.15964844 22.79808594 -13.98242188 22.40429688 C-19.01484516 19.98856964 -24.01291547 17.50782372 -29 15 C-29 14.34 -29 13.68 -29 13 C-28.19949219 12.62246582 -28.19949219 12.62246582 -27.3828125 12.23730469 C-24.92142883 11.07581265 -22.46071201 9.91291427 -20 8.75 C-19.16082031 8.35425781 -18.32164062 7.95851562 -17.45703125 7.55078125 C-13.44269112 5.65252739 -9.45166621 3.72897919 -5.5 1.703125 C-2 0 -2 0 0 0 Z " fill="#2C94A8" transform="translate(290,125)"/>
<path d="M0 0 C4.59360817 1.3871442 8.60659502 3.26006745 12.8125 5.5625 C13.95332031 6.18253906 15.09414063 6.80257812 16.26953125 7.44140625 C19 9 19 9 20 10 C20.11561644 12.25537775 20.15973639 14.51443187 20.17700195 16.77270508 C20.18357315 17.48199661 20.19014435 18.19128815 20.19691467 18.92207336 C20.21673607 21.28789375 20.22834528 23.6536496 20.23828125 26.01953125 C20.24235678 26.83212591 20.2464323 27.64472057 20.25063133 28.48193932 C20.2715544 32.80379357 20.28581479 37.12561573 20.29516602 41.44750977 C20.30394076 44.99033262 20.32459945 48.53275227 20.35668945 52.07543945 C20.65946618 86.22657435 18.38526472 118.01680702 -6.15234375 144.2421875 C-8 146 -8 146 -10 147 C-10 145.35 -10 143.7 -10 142 C-8.68 141.67 -7.36 141.34 -6 141 C-6 140.01 -6 139.02 -6 138 C-5.34 138 -4.68 138 -4 138 C-4 137.34 -4 136.68 -4 136 C-3.34 136 -2.68 136 -2 136 C-1.87625 135.360625 -1.7525 134.72125 -1.625 134.0625 C-1.41875 133.381875 -1.2125 132.70125 -1 132 C-0.34 131.67 0.32 131.34 1 131 C1.65555119 128.47266765 1.65555119 128.47266765 2 126 C2.99 126 3.98 126 5 126 C5 125.01 5 124.02 5 123 C5.66 123 6.32 123 7 123 C7.185625 121.2984375 7.185625 121.2984375 7.375 119.5625 C7.684375 117.7990625 7.684375 117.7990625 8 116 C8.99 115.505 8.99 115.505 10 115 C10.72018461 112.9305054 10.72018461 112.9305054 11.21875 110.3984375 C11.42886719 109.43164062 11.63898438 108.46484375 11.85546875 107.46875 C12.06816406 106.4478125 12.28085937 105.426875 12.5 104.375 C12.71269531 103.40820312 12.92539062 102.44140625 13.14453125 101.4453125 C16.02509657 87.94376709 17.30163121 74.88137542 17.1953125 61.09765625 C17.19156845 59.63936053 17.18872809 58.18106223 17.18673706 56.72276306 C17.17920991 52.94008059 17.15965969 49.15755912 17.1373291 45.37493896 C17.11663102 41.49281999 17.10768487 37.61067423 17.09765625 33.72851562 C17.07639986 26.15227146 17.04240145 18.57615854 17 11 C16.06929688 10.69320312 15.13859375 10.38640625 14.1796875 10.0703125 C11.40591241 9.13663391 8.70523295 8.11391945 6 7 C6 6.01 6 5.02 6 4 C4.35 4 2.7 4 1 4 C1 3.34 1 2.68 1 2 C0.34 1.67 -0.32 1.34 -1 1 C-0.67 0.67 -0.34 0.34 0 0 Z " fill="#45CBAF" transform="translate(313,173)"/>
<path d="M0 0 C0.33 0 0.66 0 1 0 C1.00423194 1.28307006 1.00846388 2.56614012 1.01282406 3.88809109 C1.11369163 34.40602089 1.21943675 64.92392951 1.33111694 95.44182151 C1.34488506 99.20527346 1.35861238 102.96872555 1.37231445 106.73217773 C1.37504276 107.48135338 1.37777106 108.23052902 1.38058204 109.00240696 C1.42455114 121.10271825 1.46522101 133.20303846 1.50465261 145.30336528 C1.54524449 157.73698738 1.58942592 170.17059306 1.63687855 182.60419089 C1.66600312 190.26461078 1.69239104 197.92502975 1.71517897 205.58547116 C1.73301016 211.47833271 1.75585685 217.37116843 1.78049088 223.26400566 C1.78977418 225.66763237 1.79747983 228.07126581 1.80341911 230.47490311 C1.83619731 243.35234176 2.04248253 256.15517031 3 269 C3.68070557 268.87536377 4.36141113 268.75072754 5.06274414 268.62231445 C6.68636068 268.32503255 8.30997721 268.02775065 9.93359375 267.73046875 C10.61550781 267.48941406 11.29742187 267.24835938 12 267 C12.33 266.01 12.66 265.02 13 264 C16.3 263.67 19.6 263.34 23 263 C18.91430098 266.06427427 14.9641473 268.09402476 10.375 270.25 C9.59898437 270.62640625 8.82296875 271.0028125 8.0234375 271.390625 C7.2809375 271.74125 6.5384375 272.091875 5.7734375 272.453125 C5.09716309 272.77442383 4.42088867 273.09572266 3.72412109 273.42675781 C2 274 2 274 0 273 C0 182.91 0 92.82 0 0 Z " fill="#2EA9AF" transform="translate(129,138)"/>
<path d="M0 0 C0 2 0 2 -1.25 3.5 C-4.76372413 6.51176354 -7.37810927 7.25677171 -12 7 C-12.144375 7.763125 -12.28875 8.52625 -12.4375 9.3125 C-14.59673838 13.02639001 -16.99364886 13.31825217 -21.00390625 14.421875 C-22.98148801 14.82066138 -22.98148801 14.82066138 -24 16 C-24.06475557 18.524875 -24.06474296 21.02638068 -24.03125 23.55078125 C-23.97230995 32.50906929 -24.06984173 41.46090635 -24.21875 50.41796875 C-24.22982788 51.09551334 -24.24090576 51.77305794 -24.25231934 52.47113419 C-24.32095197 56.66261084 -24.39185913 60.85404607 -24.46356201 65.04547119 C-24.52504614 68.65985212 -24.58470102 72.27426326 -24.64453125 75.88867188 C-24.76127772 82.92581102 -24.87997926 89.96291587 -25 97 C-24.34 97 -23.68 97 -23 97 C-22.66048381 98.56116819 -22.32867456 100.12401338 -22 101.6875 C-21.814375 102.55761719 -21.62875 103.42773438 -21.4375 104.32421875 C-21.01027953 106.93712964 -20.92383799 109.35813038 -21 112 C-27.75250177 105.24749823 -27.42643019 89.27973566 -27.464077 80.20938301 C-27.45299289 77.72001944 -27.42228655 75.23136665 -27.390625 72.7421875 C-27.38313725 70.97430064 -27.37745637 69.20640531 -27.37347412 67.43850708 C-27.35841664 62.85178502 -27.31931443 58.26559372 -27.2746582 53.67907715 C-27.23326843 48.97232233 -27.21537114 44.26547925 -27.1953125 39.55859375 C-27.1527943 30.3721664 -27.08479414 21.18612783 -27 12 C-24.79735357 10.89356931 -22.59415053 9.78827123 -20.390625 8.68359375 C-19.77525879 8.3743396 -19.15989258 8.06508545 -18.52587891 7.74645996 C-3.06351701 0 -3.06351701 0 0 0 Z " fill="#50CACC" transform="translate(194,170)"/>
<path d="M0 0 C2.97 0.495 2.97 0.495 6 1 C6 77.23 6 153.46 6 232 C5.67 232 5.34 232 5 232 C5 156.1 5 80.2 5 2 C0.05 4.31 -4.9 6.62 -10 9 C-11.65 8.67 -13.3 8.34 -15 8 C-12.61874536 5.61874536 -10.66142433 4.99813759 -7.5 3.875 C-6.5203125 3.52179688 -5.540625 3.16859375 -4.53125 2.8046875 C-2 2 -2 2 0 2 C0 1.34 0 0.68 0 0 Z " fill="#48BEA0" transform="translate(338,133)"/>
<path d="M0 0 C6.16456078 0.38528505 9.98627748 2.47086025 15 6 C12.8225376 9.2661936 11.79455059 9.81632254 8.3359375 11.41796875 C7.38589844 11.86398437 6.43585938 12.31 5.45703125 12.76953125 C4.43996094 13.23746094 3.42289063 13.70539063 2.375 14.1875 C0.27808191 15.16936949 -1.81826984 16.15244934 -3.9140625 17.13671875 C-4.94821289 17.62060059 -5.98236328 18.10448242 -7.04785156 18.60302734 C-11.69485855 20.80201626 -16.28270197 23.11355801 -20.86181641 25.44995117 C-24.844499 27.46886573 -28.88807458 29.26162503 -33 31 C-35.36444647 32.10173905 -37.72584554 33.2088354 -40.08203125 34.328125 C-40.71496094 34.54984375 -41.34789062 34.7715625 -42 35 C-42.66 34.67 -43.32 34.34 -44 34 C-44 33.34 -44 32.68 -44 32 C-42.35 32 -40.7 32 -39 32 C-39 31.34 -39 30.68 -39 30 C-25.57142857 22 -25.57142857 22 -20 22 C-19.67 21.01 -19.34 20.02 -19 19 C-17.68352881 18.30062468 -16.34977849 17.63270867 -15 17 C-14.67 16.34 -14.34 15.68 -14 15 C-13.21625 15.12375 -12.4325 15.2475 -11.625 15.375 C-6.28577525 14.82266641 -2.29903404 12.12509819 2 9 C2.33 8.34 2.66 7.68 3 7 C2.06421005 4.64018187 1.06652192 2.30368736 0 0 Z " fill="#3FB1A8" transform="translate(224,353)"/>
<path d="M0 0 C4.97473924 0.54512468 8.85372278 2.21535371 13.21875 4.53125 C19.15837004 7.59086477 25.1394824 10.50894556 31.21875 13.28125 C31.98227783 13.62961914 32.74580566 13.97798828 33.5324707 14.33691406 C35.85397639 15.39350149 38.17693789 16.44683972 40.5 17.5 C42.1134046 18.23410397 43.72668642 18.96847782 45.33984375 19.703125 C49.22516231 21.47184673 53.11209559 23.23697008 57 25 C57 25.33 57 25.66 57 26 C54.03 26 51.06 26 48 26 C47.505 24.515 47.505 24.515 47 23 C45.68 23 44.36 23 43 23 C43 22.34 43 21.68 43 21 C37.5155733 20.25669086 37.5155733 20.25669086 32 20 C31.79375 19.38125 31.5875 18.7625 31.375 18.125 C29.45211226 15.15326441 27.31494612 15.01477942 24 14 C23.39285156 13.32324219 23.39285156 13.32324219 22.7734375 12.6328125 C20.11749591 10.18747421 16.89285589 9.18598433 13.5625 7.9375 C9.61825059 6.42750288 5.78530103 4.89265051 2 3 C1.67 18.51 1.34 34.02 1 50 C0.67 50 0.34 50 0 50 C-1.09628573 21.61902839 -1.09628573 21.61902839 -1.125 10.375 C-1.12951172 9.65521973 -1.13402344 8.93543945 -1.13867188 8.19384766 C-1.12975673 5.17681428 -0.96266969 2.88800907 0 0 Z " fill="#5CC8D8" transform="translate(129,88)"/>
<path d="M0 0 C2.40150903 1.23594662 4.56531661 2.47194562 6.8125 3.9375 C7.40998047 4.31068359 8.00746094 4.68386719 8.62304688 5.06835938 C10.10592145 6.00892554 11.55637201 7.00024006 13 8 C13 8.33 13 8.66 13 9 C10.125 9.625 10.125 9.625 7 10 C6.34 9.34 5.68 8.68 5 8 C2.65245602 6.66096786 2.65245602 6.66096786 0 6 C-2.06669397 6.90833725 -2.06669397 6.90833725 -4 8 C-6.0625 7.6875 -6.0625 7.6875 -8 7 C-8.99 6.67 -9.98 6.34 -11 6 C-11 6.66 -11 7.32 -11 8 C-13.96687001 9.64826111 -16.65626525 10.44271087 -20 11 C-20 11.66 -20 12.32 -20 13 C-19.34 13.33 -18.68 13.66 -18 14 C-21.62197194 15.49140021 -25.27566618 16.7874262 -29 18 C-28.66666667 16.66666667 -28.33333333 15.33333333 -28 14 C-27.92104492 13.34676758 -27.84208984 12.69353516 -27.76074219 12.02050781 C-27 10 -27 10 -24.94628906 8.62792969 C-24.06166992 8.22993164 -23.17705078 7.83193359 -22.265625 7.421875 C-21.29882812 6.98359375 -20.33203125 6.5453125 -19.3359375 6.09375 C-18.31757813 5.6503125 -17.29921875 5.206875 -16.25 4.75 C-15.24710938 4.29109375 -14.24421875 3.8321875 -13.2109375 3.359375 C-4.64277429 -0.45879853 -4.64277429 -0.45879853 0 0 Z " fill="#35A39E" transform="translate(210,342)"/>
<path d="M0 0 C0.33 0 0.66 0 1 0 C1.06965285 7.58894909 1.12288865 15.17786484 1.15543652 22.76706123 C1.17106162 26.29143732 1.19224144 29.81559394 1.22631836 33.33984375 C1.26528952 37.39585421 1.27973523 41.4516358 1.29296875 45.5078125 C1.30845261 46.76739777 1.32393646 48.02698303 1.33988953 49.32473755 C1.34011612 50.50550873 1.34034271 51.68627991 1.34057617 52.90283203 C1.34723801 53.93763702 1.35389984 54.97244202 1.36076355 56.03860474 C0.93469315 59.53608356 -0.32857435 61.921723 -2 65 C-2.69510994 67.85791426 -2.69510994 67.85791426 -3.0625 70.6875 C-3.58791814 74.30537918 -3.92553319 75.88829978 -6 79 C-6.66 79 -7.32 79 -8 79 C-7.87625 80.3303125 -7.87625 80.3303125 -7.75 81.6875 C-8.05523584 85.73187485 -9.35088036 87.02977495 -12 90 C-12.33 90.99 -12.66 91.98 -13 93 C-14.87617698 94.84499398 -16.92737609 96.3683599 -19 98 C-19.68359375 95.73828125 -19.68359375 95.73828125 -20 93 C-18.84765625 91.10546875 -18.84765625 91.10546875 -17.0625 89.1875 C-13.58846439 85.02981883 -11.09768066 80.75730328 -8.6875 75.9375 C-8.35049072 75.27709717 -8.01348145 74.61669434 -7.66625977 73.9362793 C-4.61041614 67.70655517 -2.94744789 61.51732119 -2.4375 54.5625 C-2.1039604 50.1039604 -2.1039604 50.1039604 -1 49 C-0.8774645 47.46617321 -0.82222062 45.92689481 -0.79467773 44.38842773 C-0.77473251 43.40748642 -0.75478729 42.4265451 -0.73423767 41.4158783 C-0.71752518 40.3492244 -0.70081268 39.2825705 -0.68359375 38.18359375 C-0.66281265 37.0974025 -0.64203156 36.01121124 -0.62062073 34.8921051 C-0.55500558 31.40730373 -0.49618489 27.92242432 -0.4375 24.4375 C-0.39432615 22.08137199 -0.35071224 19.72525201 -0.30664062 17.36914062 C-0.19931208 11.57951063 -0.09756835 5.78980225 0 0 Z " fill="#29C6AA" transform="translate(304,203)"/>
<path d="M0 0 C0.33 0 0.66 0 1 0 C1.01030746 0.83921494 1.02061493 1.67842987 1.03123474 2.54307556 C1.13001925 10.5287019 1.23263331 18.51426848 1.33933926 26.49979305 C1.39404225 30.60327353 1.44736566 34.70676142 1.49731445 38.81030273 C1.54574983 42.78503429 1.5980984 46.75969826 1.65294075 50.73434639 C1.67301283 52.23583816 1.6917741 53.73734816 1.70907402 55.23887444 C1.83256717 65.85145082 2.29573643 76.41006417 3 87 C3.68070557 86.87536377 4.36141113 86.75072754 5.06274414 86.62231445 C6.68636068 86.32503255 8.30997721 86.02775065 9.93359375 85.73046875 C10.95646484 85.36888672 10.95646484 85.36888672 12 85 C12.33 84.01 12.66 83.02 13 82 C17.95 81.505 17.95 81.505 23 81 C18.91430098 84.06427427 14.9641473 86.09402476 10.375 88.25 C9.59898437 88.62640625 8.82296875 89.0028125 8.0234375 89.390625 C7.2809375 89.74125 6.5384375 90.091875 5.7734375 90.453125 C5.09716309 90.77442383 4.42088867 91.09572266 3.72412109 91.42675781 C2 92 2 92 0 91 C0 60.97 0 30.94 0 0 Z " fill="#32AA9B" transform="translate(129,320)"/>
<path d="M0 0 C0.495 1.98 0.495 1.98 1 4 C0.34 4 -0.32 4 -1 4 C-1.103125 4.5775 -1.20625 5.155 -1.3125 5.75 C-2.09792798 8.32049158 -3.30504197 9.93657284 -5 12 C-5.66 11.67 -6.32 11.34 -7 11 C-7.268125 11.639375 -7.53625 12.27875 -7.8125 12.9375 C-9 15 -9 15 -12 16 C-12.73323796 18.01508358 -12.73323796 18.01508358 -13 20 C-17.75 21 -17.75 21 -20 21 C-22.34570085 21.97063483 -24.68020619 22.96898053 -27 24 C-26.34 25.65 -25.68 27.3 -25 29 C-27.96175123 28.38722388 -29.38058783 27.74627478 -32 26 C-32 25.01 -32 24.02 -32 23 C-29.42280294 21.32618151 -26.88136893 19.83749106 -24.1875 18.375 C-15.10303982 13.25286039 -7.32831409 7.47924047 0 0 Z " fill="#1DB69B" transform="translate(283,297)"/>
<path d="M0 0 C0.9075 0.391875 1.815 0.78375 2.75 1.1875 C2.75 2.1775 2.75 3.1675 2.75 4.1875 C-0.90732142 6.01931047 -4.57725928 7.82433065 -8.25 9.625 C-9.27996094 10.14126953 -10.30992187 10.65753906 -11.37109375 11.18945312 C-17.11017283 13.98588338 -21.84943284 15.88747341 -28.25 16.1875 C-27.74396008 14.01875748 -27.25016187 12.18782373 -26.25 10.1875 C-24.359375 9.7734375 -24.359375 9.7734375 -22 9.5625 C-20.78763672 9.45228516 -20.78763672 9.45228516 -19.55078125 9.33984375 C-17.11004606 9.1782331 -14.695326 9.10861852 -12.25 9.1875 C-12.25 8.1975 -12.25 7.2075 -12.25 6.1875 C-12.91 5.8575 -13.57 5.5275 -14.25 5.1875 C-13.92 3.8675 -13.59 2.5475 -13.25 1.1875 C-12.26 1.5175 -11.27 1.8475 -10.25 2.1875 C-10.25 3.1775 -10.25 4.1675 -10.25 5.1875 C-9.59 5.1875 -8.93 5.1875 -8.25 5.1875 C-7.92 4.1975 -7.59 3.2075 -7.25 2.1875 C-4.5909125 -0.66855694 -3.87882023 -0.96970506 0 0 Z " fill="#2292A5" transform="translate(246.25,174.8125)"/>
<path d="M0 0 C0.33 0 0.66 0 1 0 C1.33 20.46 1.66 40.92 2 62 C11.9 57.545 11.9 57.545 22 53 C23.32 53 24.64 53 26 53 C25.67 53.99 25.34 54.98 25 56 C23.09309387 56.73599886 21.18061666 57.4609325 19.2421875 58.109375 C16.91110293 59.03531103 15.11391314 60.19148238 13.0625 61.625 C8.8631107 64.4051126 4.96337399 64.87361779 0 65 C-1.09365058 61.71904825 -1.08471546 59.41830216 -1.02172852 55.96801758 C-1.00163223 54.72695755 -0.98153595 53.48589752 -0.96083069 52.20722961 C-0.93363448 50.85299457 -0.90632364 49.49876183 -0.87890625 48.14453125 C-0.85459962 46.75877157 -0.83075633 45.3730037 -0.80735779 43.98722839 C-0.74457082 40.34244437 -0.67548902 36.69780575 -0.60510254 33.05316162 C-0.53437037 29.3330344 -0.46958264 25.6128042 -0.40429688 21.89257812 C-0.275354 14.59493818 -0.1397619 7.29744161 0 0 Z " fill="#17C6AE" transform="translate(155,302)"/>
<path d="M0 0 C1.65 0 3.3 0 5 0 C5 0.66 5 1.32 5 2 C7.31 2.33 9.62 2.66 12 3 C12.33 3.99 12.66 4.98 13 6 C13.928125 6 14.85625 6 15.8125 6 C17.875 6 19.9375 6 22 6 C22 6.66 22 7.32 22 8 C22.99 8.66 23.98 9.32 25 10 C25 10.66 25 11.32 25 12 C26.65 12 28.3 12 30 12 C30.33 12.99 30.66 13.98 31 15 C31.845625 14.9175 32.69125 14.835 33.5625 14.75 C38.03634062 15.07537023 40.24893952 16.59932129 44 19 C44 19.99 44 20.98 44 22 C38.79177371 20.41922844 34.01622645 18.22616881 29.125 15.875 C28.29871094 15.47974121 27.47242188 15.08448242 26.62109375 14.67724609 C24.07810261 13.45686348 21.53865725 12.22936919 19 11 C18.20948242 10.61908203 17.41896484 10.23816406 16.60449219 9.84570312 C14.39906032 8.77997851 12.19864297 7.70464968 10 6.625 C9.00444092 6.14329346 9.00444092 6.14329346 7.98876953 5.65185547 C4.8769126 4.10693304 2.24587879 2.69175178 0 0 Z " fill="#39CEA2" transform="translate(235,347)"/>
<path d="M0 0 C5.80756269 -0.3519735 10.91660078 1.28885375 16 4 C17.66140763 4.67966676 19.32700041 5.34938905 21 6 C21 6.66 21 7.32 21 8 C21.99 8 22.98 8 24 8 C24 8.66 24 9.32 24 10 C24.63808594 10.10957031 25.27617187 10.21914062 25.93359375 10.33203125 C26.75988281 10.49058594 27.58617187 10.64914063 28.4375 10.8125 C29.26121094 10.96332031 30.08492187 11.11414063 30.93359375 11.26953125 C31.95646484 11.63111328 31.95646484 11.63111328 33 12 C33.495 13.485 33.495 13.485 34 15 C36.42681908 15.95989591 36.42681908 15.95989591 39.3125 16.5625 C42.81263332 17.38963431 45.8456961 18.25426886 49 20 C49 20.99 49 21.98 49 23 C42.39457286 21.1127351 36.46990367 18.31589022 30.37695312 15.19433594 C24.82979314 12.36915446 19.19250136 9.83656952 13.47436523 7.37963867 C8.89158153 5.40637573 4.42437817 3.30436363 0 1 C0 0.67 0 0.34 0 0 Z " fill="#55D0DC" transform="translate(159,135)"/>
<path d="M0 0 C0 2 0 2 -1.25 3.5 C-4.76372413 6.51176354 -7.37810927 7.25677171 -12 7 C-12.144375 7.763125 -12.28875 8.52625 -12.4375 9.3125 C-14.59673838 13.02639001 -16.99364886 13.31825217 -21.00390625 14.421875 C-22.98148801 14.82066138 -22.98148801 14.82066138 -24 16 C-24.07456728 17.34575299 -24.08327536 18.69531161 -24.0625 20.04296875 C-24.05476562 20.86990234 -24.04703125 21.69683594 -24.0390625 22.54882812 C-24.01330991 24.28841576 -23.9872748 26.02799924 -23.9609375 27.76757812 C-23.91880562 32.30728827 -24.0636264 36.53027915 -25 41 C-25.33 41 -25.66 41 -26 41 C-26 31.76 -26 22.52 -26 13 C-25.34 13 -24.68 13 -24 13 C-23.67 12.01 -23.34 11.02 -23 10 C-21.3894043 8.95678711 -21.3894043 8.95678711 -19.32421875 8.02734375 C-18.20563477 7.51397461 -18.20563477 7.51397461 -17.06445312 6.99023438 C-16.28005859 6.64283203 -15.49566406 6.29542969 -14.6875 5.9375 C-13.14965039 5.23847745 -11.61188719 4.53926474 -10.07421875 3.83984375 C-9.38932373 3.53425537 -8.70442871 3.22866699 -7.9987793 2.91381836 C-6.60427901 2.27626925 -5.2287733 1.59621778 -3.87036133 0.88500977 C-2 0 -2 0 0 0 Z " fill="#15C7CB" transform="translate(194,170)"/>
<path d="M0 0 C0 0.99 0 1.98 0 3 C-1.32 2.34 -2.64 1.68 -4 1 C-4 1.66 -4 2.32 -4 3 C-4.66 3 -5.32 3 -6 3 C-6.33 3.66 -6.66 4.32 -7 5 C-8.5778125 5.2165625 -8.5778125 5.2165625 -10.1875 5.4375 C-15.52805635 6.22545094 -18.78068335 7.62024695 -22.375 11.6875 C-22.91125 12.450625 -23.4475 13.21375 -24 14 C-26.475 13.01 -26.475 13.01 -29 12 C-28.67 11.34 -28.34 10.68 -28 10 C-27.34 10 -26.68 10 -26 10 C-26 9.01 -26 8.02 -26 7 C-23.36577449 5.61786331 -20.72154047 4.27035794 -18.0625 2.9375 C-17.32708984 2.54755859 -16.59167969 2.15761719 -15.83398438 1.75585938 C-10.1992929 -1.0245779 -6.12997912 -1.32684708 0 0 Z " fill="#1895AA" transform="translate(220,162)"/>
<path d="M0 0 C0.66 0 1.32 0 2 0 C1.91162457 2.685631 1.51032526 4.45285287 -0.34667969 6.44384766 C-2.14394818 7.97034413 -3.98635307 9.400727 -5.875 10.8125 C-6.51308594 11.31458984 -7.15117187 11.81667969 -7.80859375 12.33398438 C-12.5868835 16 -12.5868835 16 -16 16 C-16 16.66 -16 17.32 -16 18 C-17.98 17.34 -19.96 16.68 -22 16 C-21.01 15.34 -20.02 14.68 -19 14 C-18.7497843 10.91634129 -18.7497843 10.91634129 -19 8 C-18.01 8.66 -17.02 9.32 -16 10 C-14.32457024 9.71395102 -12.65614657 9.38218767 -11 9 C-10.34 9.33 -9.68 9.66 -9 10 C-9 9.34 -9 8.68 -9 8 C-8.34 8 -7.68 8 -7 8 C-7 7.01 -7 6.02 -7 5 C-7.66 4.34 -8.32 3.68 -9 3 C-6 2 -6 2 -3.375 1.5 C-1.05538548 1.23747474 -1.05538548 1.23747474 0 0 Z " fill="#2BAA9B" transform="translate(299,320)"/>
<path d="M0 0 C0 9.9 0 19.8 0 30 C-0.33 30 -0.66 30 -1 30 C-1 21.09 -1 12.18 -1 3 C-4.465 4.485 -4.465 4.485 -8 6 C-9.32860925 6.35169068 -10.66158328 6.68770276 -12 7 C-12.825 7.350625 -13.65 7.70125 -14.5 8.0625 C-17 9 -17 9 -21 9 C-21 9.66 -21 10.32 -21 11 C-25.455 11.495 -25.455 11.495 -30 12 C-26.39845092 8.94894676 -22.42191739 7.27058861 -18.125 5.4375 C-17.43019531 5.13392578 -16.73539062 4.83035156 -16.01953125 4.51757812 C-5.56709559 0 -5.56709559 0 0 0 Z " fill="#23BFB8" transform="translate(370,90)"/>
<path d="M0 0 C2.6875 0.875 2.6875 0.875 5 2 C4.67 2.99 4.34 3.98 4 5 C5.32 5.66 6.64 6.32 8 7 C5.36 6.67 2.72 6.34 0 6 C0 23.16 0 40.32 0 58 C-0.33 58 -0.66 58 -1 58 C-1.14298018 53.21282589 -1.28538147 48.42563504 -1.42724609 43.63842773 C-1.4755894 42.00984227 -1.52409095 40.38126149 -1.57275391 38.75268555 C-1.64266894 36.41195877 -1.71201507 34.07121573 -1.78125 31.73046875 C-1.81406067 30.63813179 -1.81406067 30.63813179 -1.84753418 29.52372742 C-1.9542224 25.89753555 -2.03867811 22.28712154 -1.9296875 18.66015625 C-1.91164062 17.80292969 -1.89359375 16.94570312 -1.875 16.0625 C-1.84019531 14.78052734 -1.84019531 14.78052734 -1.8046875 13.47265625 C-2.01410773 10.8213961 -2.76859998 9.32052673 -4 7 C-3.8125 4.375 -3.8125 4.375 -3 2 C-2.01 1.34 -1.02 0.68 0 0 Z " fill="#19C6D9" transform="translate(156,128)"/>
<path d="M0 0 C0.99 0.495 0.99 0.495 2 1 C1.99333817 1.64542755 1.98667633 2.2908551 1.97981262 2.95584106 C1.91289519 9.73792485 1.86796786 16.51991325 1.83520508 23.30224609 C1.820217 25.82572242 1.79981964 28.34917313 1.77368164 30.87255859 C1.40677621 50.15900487 1.40677621 50.15900487 5 69 C5.21140625 69.78181641 5.4228125 70.56363281 5.640625 71.36914062 C6.06378788 72.92124162 6.52431809 74.46318152 7 76 C5.10823059 75.38870239 5.10823059 75.38870239 3 74 C-0.41697007 64.94042443 -0.4122289 55.05987207 -0.29296875 45.5078125 C-0.28872391 44.19585907 -0.28447906 42.88390564 -0.28010559 41.53219604 C-0.26881982 38.09627126 -0.23950011 34.66074588 -0.20599365 31.22497559 C-0.17493488 27.69821572 -0.16152495 24.17138935 -0.14648438 20.64453125 C-0.11460886 13.76285996 -0.06361828 6.88144931 0 0 Z " fill="#73D0CC" transform="translate(196,202)"/>
<path d="M0 0 C2.97 0.495 2.97 0.495 6 1 C6 18.82 6 36.64 6 55 C5.67 55 5.34 55 5 55 C5 37.51 5 20.02 5 2 C0.05 4.31 -4.9 6.62 -10 9 C-11.65 8.67 -13.3 8.34 -15 8 C-12.61874536 5.61874536 -10.66142433 4.99813759 -7.5 3.875 C-6.5203125 3.52179688 -5.540625 3.16859375 -4.53125 2.8046875 C-2 2 -2 2 0 2 C0 1.34 0 0.68 0 0 Z " fill="#4CBFB7" transform="translate(338,133)"/>
<path d="M0 0 C0.99 0.66 1.98 1.32 3 2 C5.62531524 2.16713569 5.62531524 2.16713569 8 2 C4.63547434 4.81915367 1.10947202 6.34147571 -2.9375 8 C-6.36736868 9.40863056 -9.59117899 10.7494884 -12.75390625 12.6875 C-15 14 -15 14 -18 14 C-17.67 13.01 -17.34 12.02 -17 11 C-16.34 11 -15.68 11 -15 11 C-15.33 9.35 -15.66 7.7 -16 6 C-15.30132812 6.02320313 -14.60265625 6.04640625 -13.8828125 6.0703125 C-12.51769531 6.09738281 -12.51769531 6.09738281 -11.125 6.125 C-10.22007812 6.14820313 -9.31515625 6.17140625 -8.3828125 6.1953125 C-5.81193006 6.24324836 -5.81193006 6.24324836 -4 4 C-2.68 4 -1.36 4 0 4 C0 2.68 0 1.36 0 0 Z " fill="#26CDD1" transform="translate(216,188)"/>
<path d="M0 0 C6.16456078 0.38528505 9.98627748 2.47086025 15 6 C14.01 7.485 14.01 7.485 13 9 C10.03 8.505 10.03 8.505 7 8 C7 8.66 7 9.32 7 10 C6.01 10 5.02 10 4 10 C4 10.66 4 11.32 4 12 C2.68 12 1.36 12 0 12 C0.33 11.01 0.66 10.02 1 9 C1.66 9 2.32 9 3 9 C1.78955868 4.39257135 1.78955868 4.39257135 0 0 Z " fill="#1D9493" transform="translate(224,353)"/>
<path d="M0 0 C0.33 0 0.66 0 1 0 C1.33 5.61 1.66 11.22 2 17 C3.464375 16.731875 4.92875 16.46375 6.4375 16.1875 C7.26121094 16.03667969 8.08492187 15.88585937 8.93359375 15.73046875 C9.95646484 15.36888672 9.95646484 15.36888672 11 15 C11.33 14.01 11.66 13.02 12 12 C15.3 11.67 18.6 11.34 22 11 C17.91430098 14.06427427 13.9641473 16.09402476 9.375 18.25 C8.59898437 18.62640625 7.82296875 19.0028125 7.0234375 19.390625 C6.2809375 19.74125 5.5384375 20.091875 4.7734375 20.453125 C4.09716309 20.77442383 3.42088867 21.09572266 2.72412109 21.42675781 C1 22 1 22 -1 21 C-0.67 14.07 -0.34 7.14 0 0 Z " fill="#29C8A6" transform="translate(130,390)"/>
<path d="M0 0 C0.66 0.33 1.32 0.66 2 1 C1.01 1.33 0.02 1.66 -1 2 C-1.268125 2.639375 -1.53625 3.27875 -1.8125 3.9375 C-3.56254312 6.97704857 -5.69804433 7.0935808 -9 8 C-9.763125 8.33 -10.52625 8.66 -11.3125 9 C-15.11808566 10.41603187 -19.02816114 11.18659509 -23 12 C-23 12.66 -23 13.32 -23 14 C-24.98 14.99 -24.98 14.99 -27 16 C-27.33 15.01 -27.66 14.02 -28 13 C-20.83048034 9.31717683 -13.6339441 5.73448222 -6.25 2.5 C-5.10015625 1.9946875 -3.9503125 1.489375 -2.765625 0.96875 C-1.39664062 0.48921875 -1.39664062 0.48921875 0 0 Z " fill="#37CCC9" transform="translate(319,111)"/>
<path d="M0 0 C1.98 0 3.96 0 6 0 C3.71025 3.43462501 2.31527819 4.03815461 -1.375 5.734375 C-2.44234375 6.22550781 -3.5096875 6.71664062 -4.609375 7.22265625 C-5.72828125 7.72667969 -6.8471875 8.23070312 -8 8.75 C-9.11890625 9.26949219 -10.2378125 9.78898438 -11.390625 10.32421875 C-17.59389233 13.14865327 -17.59389233 13.14865327 -20 14 C-22 13 -22 13 -23 11 C-22.030625 10.71125 -21.06125 10.4225 -20.0625 10.125 C-16.89335797 9.35785318 -16.89335797 9.35785318 -16 7 C-14.33678518 6.64984951 -12.66965451 6.31802943 -11 6 C-10.01 5.34 -9.02 4.68 -8 4 C-5.3125 3.875 -5.3125 3.875 -3 4 C-3 3.34 -3 2.68 -3 2 C-2.01 2 -1.02 2 0 2 C0 1.34 0 0.68 0 0 Z " fill="#32AFB6" transform="translate(320,141)"/>
<path d="M0 0 C0.66 0.33 1.32 0.66 2 1 C2.13148438 1.63679688 2.26296875 2.27359375 2.3984375 2.9296875 C2.80497281 5.10492633 2.80497281 5.10492633 4.6015625 6.1953125 C9.01435851 8.22281337 13.28482538 9.82120635 18 11 C18 11.66 18 12.32 18 13 C12.20925165 13.56337424 8.25813416 11.65581381 3.1875 9.1875 C2.41212891 8.83107422 1.63675781 8.47464844 0.83789062 8.10742188 C-3.41281966 6.08061776 -3.41281966 6.08061776 -5 5 C-5.33 4.01 -5.66 3.02 -6 2 C-4.02 2 -2.04 2 0 2 C0 1.34 0 0.68 0 0 Z " fill="#25C98F" transform="translate(293,369)"/>
<path d="M0 0 C-5.50733302 4.40586642 -11.52121076 7.31912169 -18 10 C-18.78246094 10.36609375 -19.56492188 10.7321875 -20.37109375 11.109375 C-21.17675781 11.48578125 -21.98242188 11.8621875 -22.8125 12.25 C-23.93591797 12.78367187 -23.93591797 12.78367187 -25.08203125 13.328125 C-25.71496094 13.54984375 -26.34789062 13.7715625 -27 14 C-27.66 13.67 -28.32 13.34 -29 13 C-29 12.34 -29 11.68 -29 11 C-27.35 11 -25.7 11 -24 11 C-24 10.34 -24 9.68 -24 9 C-8.4277839 -0.55567806 -8.4277839 -0.55567806 0 0 Z " fill="#46C9AD" transform="translate(209,374)"/>
<path d="M0 0 C0.99 0.495 0.99 0.495 2 1 C1.01 1.495 1.01 1.495 0 2 C0 1.34 0 0.68 0 0 Z M-1 2 C-0.34 2.99 0.32 3.98 1 5 C-4.75 7 -4.75 7 -7 7 C-9.34570085 7.97063483 -11.68020619 8.96898053 -14 10 C-13.34 11.65 -12.68 13.3 -12 15 C-14.96175123 14.38722388 -16.38058783 13.74627478 -19 12 C-19 11.01 -19 10.02 -19 9 C-14.98336761 5.67839857 -10.28939572 2.57600217 -4.9375 2.6875 C-3.968125 2.790625 -2.99875 2.89375 -2 3 C-1.67 2.67 -1.34 2.34 -1 2 Z " fill="#249695" transform="translate(270,311)"/>
<path d="M0 0 C6.2319983 -0.74535528 10.90064819 1.89948766 16.375 4.5 C17.30183594 4.92925781 18.22867188 5.35851562 19.18359375 5.80078125 C21.46065079 6.85714792 23.73230522 7.92371962 26 9 C26 9.33 26 9.66 26 10 C23.03 10 20.06 10 17 10 C16.67 9.01 16.34 8.02 16 7 C14.68 7 13.36 7 12 7 C12 6.34 12 5.68 12 5 C6.5155733 4.25669086 6.5155733 4.25669086 1 4 C0.67 2.68 0.34 1.36 0 0 Z " fill="#47D0E2" transform="translate(160,104)"/>
<path d="M0 0 C-0.33 0.99 -0.66 1.98 -1 3 C-2.90462509 3.73511846 -4.81458635 4.45962899 -6.75 5.109375 C-9.10325182 6.04087051 -10.97298864 7.20478525 -13.0625 8.625 C-16.76747648 11.0680835 -19.59437484 11.72464843 -24 12 C-23 9 -23 9 -21.20581055 7.83325195 C-20.05786011 7.29124146 -20.05786011 7.29124146 -18.88671875 6.73828125 C-18.05076172 6.34189453 -17.21480469 5.94550781 -16.35351562 5.53710938 C-15.03383789 4.93092773 -15.03383789 4.93092773 -13.6875 4.3125 C-12.81931641 3.89677734 -11.95113281 3.48105469 -11.05664062 3.05273438 C-4.52509236 0 -4.52509236 0 0 0 Z " fill="#34CFB1" transform="translate(181,355)"/>
<path d="M0 0 C-0.66666667 2.66666667 -1.33333333 5.33333333 -2 8 C-2.639375 8.12375 -3.27875 8.2475 -3.9375 8.375 C-4.618125 8.58125 -5.29875 8.7875 -6 9 C-6.33 9.66 -6.66 10.32 -7 11 C-7.66 11 -8.32 11 -9 11 C-9.33 9.68 -9.66 8.36 -10 7 C-12.31 7.33 -14.62 7.66 -17 8 C-13.9703348 5.55185821 -10.92450401 3.90547147 -7.375 2.3125 C-6.41335938 1.87550781 -5.45171875 1.43851562 -4.4609375 0.98828125 C-2 0 -2 0 0 0 Z " fill="#28A6B5" transform="translate(290,125)"/>
<path d="M0 0 C5.09882455 1.5280389 9.65665659 3.71036856 14.375 6.125 C15.11105469 6.49753906 15.84710938 6.87007813 16.60546875 7.25390625 C18.40550358 8.1656122 20.20301402 9.08229932 22 10 C21.67 10.99 21.34 11.98 21 13 C18.5625 12.625 18.5625 12.625 16 12 C15.67 11.34 15.34 10.68 15 10 C14.01 10.33 13.02 10.66 12 11 C11.34 10.34 10.68 9.68 10 9 C10.33 8.34 10.66 7.68 11 7 C9.02 6.34 7.04 5.68 5 5 C5 4.34 5 3.68 5 3 C3.35 2.67 1.7 2.34 0 2 C0 1.34 0 0.68 0 0 Z " fill="#1BD08F" transform="translate(319,354)"/>
<path d="M0 0 C3.49588874 1.7610474 6.81258806 3.72597686 10 6 C10 6.33 10 6.66 10 7 C7.125 7.625 7.125 7.625 4 8 C3.34 7.34 2.68 6.68 2 6 C-0.34754398 4.66096786 -0.34754398 4.66096786 -3 4 C-5.06669397 4.90833725 -5.06669397 4.90833725 -7 6 C-9.25 5.625 -9.25 5.625 -11 5 C-11 4.34 -11 3.68 -11 3 C-7.27138573 0.14870674 -4.63810701 -0.78760308 0 0 Z " fill="#129898" transform="translate(213,344)"/>
<path d="M0 0 C-6.65738822 3.62827658 -12.34167083 6.70544888 -20 7 C-19.49396008 4.83125748 -19.00016187 3.00032373 -18 1 C-16.109375 0.62109375 -16.109375 0.62109375 -13.75 0.4375 C-11.14471657 0.21041507 -8.74606262 -0.05643053 -6.1875 -0.625 C-3.77323226 -1.03887447 -2.32886443 -0.65423026 0 0 Z " fill="#02ACB6" transform="translate(238,184)"/>
<path d="M0 0 C-4.09958756 2.00948822 -8.20538426 4.00594928 -12.3125 6 C-14.06336914 6.85851562 -14.06336914 6.85851562 -15.84960938 7.734375 C-17.52700195 8.54648437 -17.52700195 8.54648437 -19.23828125 9.375 C-20.26993408 9.87773437 -21.30158691 10.38046875 -22.36450195 10.8984375 C-25 12 -25 12 -28 12 C-28 11.34 -28 10.68 -28 10 C-27.01 9.67 -26.02 9.34 -25 9 C-24.67 8.34 -24.34 7.68 -24 7 C-23.154375 6.731875 -22.30875 6.46375 -21.4375 6.1875 C-18.46296279 5.1599326 -16.56818649 4.15291055 -14 2.4375 C-9.2434157 -0.63975588 -5.49616826 -1.5267134 0 0 Z " fill="#43D2B4" transform="translate(180,389)"/>
<path d="M0 0 C4 0 4 0 5.375 1.3125 C5.91125 1.869375 6.4475 2.42625 7 3 C8.99180409 4.01622658 10.99152635 5.01712992 13 6 C13.66 6.66 14.32 7.32 15 8 C16.134375 8.2475 17.26875 8.495 18.4375 8.75 C22 10 22 10 23.9375 13.125 C24.288125 14.07375 24.63875 15.0225 25 16 C15.95993424 12.59197521 7.61964973 6.88496352 0 1 C0 0.67 0 0.34 0 0 Z " fill="#4AD6B8" transform="translate(207,330)"/>
<path d="M0 0 C7.44379088 2.23313726 14.11976695 5.40272079 21 9 C21 9.33 21 9.66 21 10 C12.42857143 10.28571429 12.42857143 10.28571429 9 8 C9 7.34 9 6.68 9 6 C8.01 6 7.02 6 6 6 C6 5.34 6 4.68 6 4 C3.69 4.33 1.38 4.66 -1 5 C-0.67 3.35 -0.34 1.7 0 0 Z " fill="#47CFC6" transform="translate(291,163)"/>
<path d="M0 0 C-1.98 0.99 -1.98 0.99 -4 2 C-4 2.66 -4 3.32 -4 4 C-3.34 4.33 -2.68 4.66 -2 5 C-5.62197194 6.49140021 -9.27566618 7.7874262 -13 9 C-12.33333333 6.33333333 -11.66666667 3.66666667 -11 1 C-9.5437328 0.63743142 -8.08488815 0.28520207 -6.625 -0.0625 C-5.40683594 -0.35833984 -5.40683594 -0.35833984 -4.1640625 -0.66015625 C-2 -1 -2 -1 0 0 Z " fill="#20BFA7" transform="translate(194,351)"/>
<path d="M0 0 C2.375 0.6875 2.375 0.6875 5 2 C6.1875 4.4375 6.1875 4.4375 7 7 C7.99 8.485 7.99 8.485 9 10 C9 10.99 9 11.98 9 13 C9.99 13 10.98 13 12 13 C12.33 13.99 12.66 14.98 13 16 C14.49985609 17.66710346 14.49985609 17.66710346 16 19 C15.67 19.99 15.34 20.98 15 22 C0 4.78640777 0 4.78640777 0 0 Z " fill="#3ECCBA" transform="translate(180,298)"/>
<path d="M0 0 C-2 3 -2 3 -4.4375 4.4375 C-7.05527174 6.03370228 -8.33734128 7.46225774 -10 10 C-12.475 9.01 -12.475 9.01 -15 8 C-14.67 7.34 -14.34 6.68 -14 6 C-13.34 6 -12.68 6 -12 6 C-12 5.01 -12 4.02 -12 3 C-10.5682384 2.30062798 -9.12932968 1.61587282 -7.6875 0.9375 C-6.88699219 0.55464844 -6.08648437 0.17179688 -5.26171875 -0.22265625 C-3 -1 -3 -1 0 0 Z " fill="#08A9BA" transform="translate(206,166)"/>
<path d="M0 0 C0.33 0 0.66 0 1 0 C1 7.26 1 14.52 1 22 C-8 22 -8 22 -11.5 20 C-12.1703125 19.62875 -12.840625 19.2575 -13.53125 18.875 C-14.0159375 18.58625 -14.500625 18.2975 -15 18 C-14.01 16.515 -14.01 16.515 -13 15 C-11.68 15.33 -10.36 15.66 -9 16 C-9.33 16.66 -9.66 17.32 -10 18 C-7.00645224 18.77610498 -4.04275136 19.39144973 -1 20 C-0.67 13.4 -0.34 6.8 0 0 Z " fill="#1FC384" transform="translate(369,387)"/>
<path d="M0 0 C0.99 0.33 1.98 0.66 3 1 C0.20307439 6.27112904 -2.98235547 10.59398317 -7 15 C-7.66 13.68 -8.32 12.36 -9 11 C-8.06558465 9.72689688 -7.12732889 8.456612 -6.1875 7.1875 C-5.66542969 6.47980469 -5.14335937 5.77210938 -4.60546875 5.04296875 C-3.16871123 3.21468607 -1.68184237 1.60103312 0 0 Z " fill="#34CFAD" transform="translate(293,286)"/>
<path d="M0 0 C0.66 0.33 1.32 0.66 2 1 C-1.11184693 4.37857667 -3.53220518 6.73985274 -8 8 C-9.32 8 -10.64 8 -12 8 C-12 8.66 -12 9.32 -12 10 C-16.455 10.495 -16.455 10.495 -21 11 C-17.33521862 7.8642553 -13.21035072 6.2201427 -8.8125 4.375 C-4.07015044 2.6895602 -4.07015044 2.6895602 0 0 Z " fill="#43CDC9" transform="translate(361,91)"/>
<path d="M0 0 C0 2 0 2 -1.20703125 3.4921875 C-6.65946929 8.07746219 -14.08364774 9.48767761 -21 10 C-17.44283087 7.03569239 -13.54949068 5.2278075 -9.375 3.3125 C-8.694375 2.99216797 -8.01375 2.67183594 -7.3125 2.34179688 C-2.25941165 0 -2.25941165 0 0 0 Z " fill="#47BFC6" transform="translate(194,170)"/>
<path d="M0 0 C2.75 0.8125 2.75 0.8125 5 2 C4.67 2.99 4.34 3.98 4 5 C5.32 5.66 6.64 6.32 8 7 C5.03 6.67 2.06 6.34 -1 6 C-1 7.65 -1 9.3 -1 11 C-1.66 10.67 -2.32 10.34 -3 10 C-3.40729228 7.67843403 -3.74438677 5.3431213 -4 3 C-2.3125 1.375 -2.3125 1.375 0 0 Z " fill="#07CDE9" transform="translate(156,128)"/>
<path d="M0 0 C2 1 2 1 3 3 C-1.66382797 6.58755998 -6.09109754 8.45208359 -12 9 C-13.33985385 8.69392723 -14.67471344 8.36401158 -16 8 C-13.37964982 6.63610475 -10.75443001 5.28367827 -8.125 3.9375 C-7.37863281 3.54755859 -6.63226563 3.15761719 -5.86328125 2.75585938 C-4.79013672 2.20961914 -4.79013672 2.20961914 -3.6953125 1.65234375 C-3.03547363 1.31195068 -2.37563477 0.97155762 -1.69580078 0.62084961 C-1.13618652 0.41596924 -0.57657227 0.21108887 0 0 Z " fill="#36D3CF" transform="translate(337,102)"/>
<path d="M0 0 C5.80756269 -0.3519735 10.91660078 1.28885375 16 4 C17.66140763 4.67966676 19.32700041 5.34938905 21 6 C21 6.66 21 7.32 21 8 C13.33969244 6.88667981 6.91369673 4.44370445 0 1 C0 0.67 0 0.34 0 0 Z " fill="#1EC9DD" transform="translate(159,135)"/>
<path d="M0 0 C2.97 0.495 2.97 0.495 6 1 C5 3 5 3 3.14453125 3.74609375 C1.99017578 4.08833984 1.99017578 4.08833984 0.8125 4.4375 C-2.14363933 5.35104544 -4.49859415 6.26847377 -7.25 7.75 C-10.3917701 9.17807732 -11.76957206 9.04513845 -15 8 C-12.61874536 5.61874536 -10.66142433 4.99813759 -7.5 3.875 C-6.5203125 3.52179688 -5.540625 3.16859375 -4.53125 2.8046875 C-2 2 -2 2 0 2 C0 1.34 0 0.68 0 0 Z " fill="#39C9C2" transform="translate(338,133)"/>
<path d="M0 0 C5.99932374 1.8331267 11.44920563 4.07321751 17 7 C13.51310826 8.17878373 11.00880273 7.80591404 7.4375 7.0625 C4.50700522 6.46208655 1.99779744 6 -1 6 C-1.33 5.01 -1.66 4.02 -2 3 C-0.35 3 1.3 3 3 3 C2.01 2.67 1.02 2.34 0 2 C0 1.34 0 0.68 0 0 Z " fill="#39D0E1" transform="translate(186,114)"/>
<path d="M0 0 C5.23272633 1.63958758 10.15196636 3.38952035 15 6 C14.34 6.66 13.68 7.32 13 8 C8.67436492 7.62923128 4.82636015 5.98676392 1 4 C0.296875 1.89453125 0.296875 1.89453125 0 0 Z " fill="#41CED6" transform="translate(231,135)"/>
<path d="M0 0 C0.99 0.495 0.99 0.495 2 1 C2.58632637 3.18699737 3.06945574 5.40208125 3.5 7.625 C4.48016294 12.50093745 5.53007686 17.25101753 7 22 C5.109375 21.421875 5.109375 21.421875 3 20 C1.953125 16.953125 1.953125 16.953125 1.25 13.25 C1.00765625 12.03828125 0.7653125 10.8265625 0.515625 9.578125 C0.04595319 6.31888728 -0.10078375 3.28555013 0 0 Z " fill="#4BCFC2" transform="translate(196,256)"/>
<path d="M0 0 C0.99 0.66 1.98 1.32 3 2 C5.64632287 1.6878236 5.64632287 1.6878236 8 1 C8 1.99 8 2.98 8 4 C6.68 4 5.36 4 4 4 C4.33 5.32 4.66 6.64 5 8 C4.34 8 3.68 8 3 8 C3 8.66 3 9.32 3 10 C1.02 9.34 -0.96 8.68 -3 8 C-2.01 7.34 -1.02 6.68 0 6 C0.2502157 2.91634129 0.2502157 2.91634129 0 0 Z " fill="#09948B" transform="translate(280,328)"/>
<path d="M0 0 C2.875 -0.125 2.875 -0.125 6 0 C6.66 0.66 7.32 1.32 8 2 C9.52056618 2.59834554 11.06612088 3.13506656 12.625 3.625 C13.85089844 4.01558594 13.85089844 4.01558594 15.1015625 4.4140625 C15.72804688 4.60742188 16.35453125 4.80078125 17 5 C17 5.66 17 6.32 17 7 C17.66 7 18.32 7 19 7 C19 7.66 19 8.32 19 9 C14.53202662 7.60121198 10.36177921 5.86369228 6.125 3.875 C4.97257812 3.33617187 3.82015625 2.79734375 2.6328125 2.2421875 C1.76398438 1.83226562 0.89515625 1.42234375 0 1 C0 0.67 0 0.34 0 0 Z " fill="#4ACDC5" transform="translate(263,184)"/>
<path d="M0 0 C2.33218272 0.84806644 3.44954313 1.8950996 5.0625 3.75 C4.0725 4.08 3.0825 4.41 2.0625 4.75 C1.4025 4.42 0.7425 4.09 0.0625 3.75 C0.0625 4.41 0.0625 5.07 0.0625 5.75 C-0.9275 5.75 -1.9175 5.75 -2.9375 5.75 C-2.9375 6.41 -2.9375 7.07 -2.9375 7.75 C-4.2575 7.75 -5.5775 7.75 -6.9375 7.75 C-6.6075 6.76 -6.2775 5.77 -5.9375 4.75 C-5.2775 4.75 -4.6175 4.75 -3.9375 4.75 C-3.9375 3.43 -3.9375 2.11 -3.9375 0.75 C-1.9375 -0.25 -1.9375 -0.25 0 0 Z " fill="#079893" transform="translate(230.9375,357.25)"/>
<path d="M0 0 C4.35970831 1.34849837 8.31341438 3.04907846 12.375 5.125 C13.43460937 5.66382813 14.49421875 6.20265625 15.5859375 6.7578125 C16.38257813 7.16773438 17.17921875 7.57765625 18 8 C14.70303895 9.09898702 13.59505097 8.87124444 10.3125 8.0625 C9.50425781 7.86785156 8.69601562 7.67320312 7.86328125 7.47265625 C7.24839844 7.31667969 6.63351562 7.16070312 6 7 C6 6.01 6 5.02 6 4 C4.35 4 2.7 4 1 4 C1 3.34 1 2.68 1 2 C0.34 1.67 -0.32 1.34 -1 1 C-0.67 0.67 -0.34 0.34 0 0 Z " fill="#42CFC2" transform="translate(313,173)"/>
<path d="M0 0 C-2.89585905 2.29648357 -5.8172031 4.04347557 -9.125 5.6875 C-10.42824219 6.34298828 -10.42824219 6.34298828 -11.7578125 7.01171875 C-14 8 -14 8 -16 8 C-16 7.01 -16 6.02 -16 5 C-14.35 4.67 -12.7 4.34 -11 4 C-10.67 3.01 -10.34 2.02 -10 1 C-6.59437148 0.22157062 -3.49234244 -0.09978121 0 0 Z " fill="#4ECFB3" transform="translate(152,401)"/>
<path d="M0 0 C1.65 0 3.3 0 5 0 C5 0.66 5 1.32 5 2 C7.31 2.33 9.62 2.66 12 3 C12.33 3.99 12.66 4.98 13 6 C13.66 6 14.32 6 15 6 C15 6.66 15 7.32 15 8 C9.52067211 6.45454854 4.88570819 3.84456788 0 1 C0 0.67 0 0.34 0 0 Z " fill="#44D2AE" transform="translate(235,347)"/>
<path d="M0 0 C9.77789419 3.00366684 9.77789419 3.00366684 14 6 C14 6.33 14 6.66 14 7 C11.36 7 8.72 7 6 7 C6 6.01 6 5.02 6 4 C4.35 4 2.7 4 1 4 C0.67 2.68 0.34 1.36 0 0 Z " fill="#40C8CA" transform="translate(274,155)"/>
<path d="M0 0 C-0.33 0.99 -0.66 1.98 -1 3 C-3 3.66666667 -5 4.33333333 -7 5 C-7.33 5.99 -7.66 6.98 -8 8 C-10.0625 8.6875 -10.0625 8.6875 -12 9 C-12.33 7.68 -12.66 6.36 -13 5 C-11.02 4.34 -9.04 3.68 -7 3 C-7 2.34 -7 1.68 -7 1 C-4.50935112 0.31292445 -2.62113708 0 0 0 Z " fill="#0792A8" transform="translate(280,132)"/>
<path d="M0 0 C1.32 0 2.64 0 4 0 C4 0.66 4 1.32 4 2 C5.32 2 6.64 2 8 2 C8.33 2.66 8.66 3.32 9 4 C10.65051288 5.11634152 10.65051288 5.11634152 12.5625 6.125 C14.2640625 7.053125 14.2640625 7.053125 16 8 C13 9 13 9 9.64453125 7.56640625 C8.3619696 6.90851193 7.08475943 6.24010257 5.8125 5.5625 C5.15830078 5.22412109 4.50410156 4.88574219 3.83007812 4.53710938 C2.21540701 3.70030902 0.60707237 2.85130254 -1 2 C-0.67 1.34 -0.34 0.68 0 0 Z " fill="#54D3A0" transform="translate(325,389)"/>
<path d="M0 0 C5.23272633 1.63958758 10.15196636 3.38952035 15 6 C14.67 6.66 14.34 7.32 14 8 C13.34 7.71125 12.68 7.4225 12 7.125 C8.37500535 5.76562701 4.76653307 4.89375361 1 4 C0.67 2.68 0.34 1.36 0 0 Z " fill="#48CAD0" transform="translate(250,144)"/>
<path d="M0 0 C4.95 0.99 4.95 0.99 10 2 C10 7.94 10 13.88 10 20 C9.67 20 9.34 20 9 20 C8.67 14.72 8.34 9.44 8 4 C6.02 3.34 4.04 2.68 2 2 C1.34 1.34 0.68 0.68 0 0 Z " fill="#1BC7B1" transform="translate(322,180)"/>
<path d="M0 0 C2.97 0.495 2.97 0.495 6 1 C6 3 6 3 5 4.625 C1.79914107 6.82559052 -1.17893517 6.18792122 -5 6 C-3.74458443 3.48916886 -2.49936512 3.12874554 0 2 C0 1.34 0 0.68 0 0 Z " fill="#15BDA2" transform="translate(209,368)"/>
<path d="M0 0 C5.91969002 1.75990784 11.41634992 4.39694605 17 7 C13.69564916 8.12377697 11.9493138 7.89554742 8.75 6.5625 C8.04359375 6.27503906 7.3371875 5.98757813 6.609375 5.69140625 C6.07828125 5.46324219 5.5471875 5.23507812 5 5 C5 4.34 5 3.68 5 3 C3.35 2.67 1.7 2.34 0 2 C0 1.34 0 0.68 0 0 Z " fill="#4ECFA5" transform="translate(319,354)"/>
<path d="M0 0 C0.33 0.66 0.66 1.32 1 2 C3.52733235 2.65555119 3.52733235 2.65555119 6 3 C6.33 4.65 6.66 6.3 7 8 C5.68 8 4.36 8 3 8 C3 7.34 3 6.68 3 6 C1.68 6 0.36 6 -1 6 C-1.33 4.68 -1.66 3.36 -2 2 C-1.34 2 -0.68 2 0 2 C0 1.34 0 0.68 0 0 Z " fill="#28CF9D" transform="translate(283,336)"/>
<path d="M0 0 C0 0.66 0 1.32 0 2 C-1.98 2.66 -3.96 3.32 -6 4 C-6 5.65 -6 7.3 -6 9 C-7.98 8.34 -9.96 7.68 -12 7 C-12 6.34 -12 5.68 -12 5 C-10.37750059 4.16180842 -8.75191503 3.3295884 -7.125 2.5 C-6.22007812 2.0359375 -5.31515625 1.571875 -4.3828125 1.09375 C-2 0 -2 0 0 0 Z " fill="#52A6B3" transform="translate(273,133)"/>
<path d="M0 0 C0.66 0.33 1.32 0.66 2 1 C2.625 3.5625 2.625 3.5625 3 6 C-2.625 6.25 -2.625 6.25 -6 4 C-6 3.34 -6 2.68 -6 2 C-4.02 2 -2.04 2 0 2 C0 1.34 0 0.68 0 0 Z " fill="#1BCC93" transform="translate(293,369)"/>
<path d="M0 0 C0.33 0.99 0.66 1.98 1 3 C1.66 3 2.32 3 3 3 C3.33951619 4.56116819 3.67132544 6.12401338 4 7.6875 C4.185625 8.55761719 4.37125 9.42773438 4.5625 10.32421875 C4.98972047 12.93712964 5.07616201 15.35813038 5 18 C2.47580407 15.47580407 2.21042962 13.57642137 1.375 10.125 C1.11460937 9.07570313 0.85421875 8.02640625 0.5859375 6.9453125 C0 4 0 4 0 0 Z " fill="#5CD3CE" transform="translate(168,264)"/>
<path d="M0 0 C2.6875 -0.3125 2.6875 -0.3125 6 0 C8.875 2.5 8.875 2.5 11 5 C9.906875 4.835 8.81375 4.67 7.6875 4.5 C4.12474127 3.93281816 4.12474127 3.93281816 1 4 C0.67 2.68 0.34 1.36 0 0 Z " fill="#1FCEE9" transform="translate(160,104)"/>
<path d="M0 0 C4.97306516 0.49730652 8.63799813 1.55302334 13 4 C13 4.33 13 4.66 13 5 C11.39504433 4.88557539 9.79101881 4.75805306 8.1875 4.625 C7.29417969 4.55539063 6.40085938 4.48578125 5.48046875 4.4140625 C3 4 3 4 0 2 C0 1.34 0 0.68 0 0 Z " fill="#41CEE3" transform="translate(151,99)"/>
<path d="M0 0 C-1.95330868 1.03041513 -3.91281528 2.0490893 -5.875 3.0625 C-6.96554688 3.63097656 -8.05609375 4.19945312 -9.1796875 4.78515625 C-10.11039063 5.18605469 -11.04109375 5.58695312 -12 6 C-12.66 5.67 -13.32 5.34 -14 5 C-14 4.34 -14 3.68 -14 3 C-12.35 3 -10.7 3 -9 3 C-9 2.34 -9 1.68 -9 1 C-5.47051709 -0.66670026 -3.71727674 -1.13583456 0 0 Z " fill="#4FD0B3" transform="translate(194,382)"/>
<path d="M0 0 C1.89353366 1.89353366 3.4198632 3.84526801 5 6 C2.03 5.67 -0.94 5.34 -4 5 C-4.33 4.01 -4.66 3.02 -5 2 C-3.35 1.34 -1.7 0.68 0 0 Z " fill="#28CD9F" transform="translate(255,352)"/>
<path d="M0 0 C4 0 4 0 5.375 1.3125 C5.91125 1.869375 6.4475 2.42625 7 3 C8.010625 3.495 9.02125 3.99 10.0625 4.5 C13 6 13 6 15 9 C10.74502732 8.44800354 8.14602576 7.00038603 4.6875 4.5 C3.80449219 3.8709375 2.92148438 3.241875 2.01171875 2.59375 C1.34785156 2.0678125 0.68398437 1.541875 0 1 C0 0.67 0 0.34 0 0 Z " fill="#55D0BA" transform="translate(207,330)"/>
<path d="M0 0 C0.99 0.33 1.98 0.66 3 1 C3 1.99 3 2.98 3 4 C3.99 3.67 4.98 3.34 6 3 C6.33 3.66 6.66 4.32 7 5 C6.67 5.66 6.34 6.32 6 7 C4.35 7 2.7 7 1 7 C1 6.34 1 5.68 1 5 C0.34 4.67 -0.32 4.34 -1 4 C-0.67 2.68 -0.34 1.36 0 0 Z " fill="#0591A6" transform="translate(233,176)"/>
<path d="M0 0 C0.99 0.66 1.98 1.32 3 2 C2.34 2 1.68 2 1 2 C1 2.99 1 3.98 1 5 C2.98 4.67 4.96 4.34 7 4 C6.67 4.99 6.34 5.98 6 7 C-1.75 5.375 -1.75 5.375 -4 2 C-2.68 1.34 -1.36 0.68 0 0 Z " fill="#0DCC83" transform="translate(341,392)"/>
<path d="M0 0 C-0.125 2.25 -0.125 2.25 -1 5 C-4.0625 7.3125 -4.0625 7.3125 -7 9 C-7.3125 6.75 -7.3125 6.75 -7 4 C-2.89189189 0 -2.89189189 0 0 0 Z " fill="#35B69A" transform="translate(301,320)"/>
<path d="M0 0 C1.45922693 0.11409593 2.91740598 0.24165544 4.375 0.375 C5.59316406 0.47941406 5.59316406 0.47941406 6.8359375 0.5859375 C9 1 9 1 11 3 C9.4375 4.1875 9.4375 4.1875 7 5 C3.25 3.625 3.25 3.625 0 2 C0 1.34 0 0.68 0 0 Z " fill="#2C8FA1" transform="translate(288,151)"/>
<path d="M0 0 C8.57142857 3 8.57142857 3 12 6 C9.36 6 6.72 6 4 6 C4 5.34 4 4.68 4 4 C2.68 3.67 1.36 3.34 0 3 C0 2.01 0 1.02 0 0 Z " fill="#4AD3DA" transform="translate(215,127)"/>
<path d="M0 0 C4.17645661 -0.34803805 5.82586157 0.33781938 9 3 C10.31836295 3.69580267 11.64791086 4.37224433 13 5 C12.67 5.66 12.34 6.32 12 7 C7.96479403 5.41037341 3.98188718 3.71767682 0 2 C0 1.34 0 0.68 0 0 Z " fill="#46D0A1" transform="translate(311,383)"/>
<path d="M0 0 C1.60495567 0.11442461 3.20898119 0.24194694 4.8125 0.375 C5.70582031 0.44460937 6.59914063 0.51421875 7.51953125 0.5859375 C10 1 10 1 13 3 C13 3.99 13 4.98 13 6 C8.52761347 4.58192622 4.28853694 2.88695626 0 1 C0 0.67 0 0.34 0 0 Z " fill="#4BCBCB" transform="translate(250,178)"/>
<path d="M0 0 C-1.98 0.99 -1.98 0.99 -4 2 C-4 2.66 -4 3.32 -4 4 C-3.34 4.33 -2.68 4.66 -2 5 C-3.65 5.66 -5.3 6.32 -7 7 C-7.33 5.68 -7.66 4.36 -8 3 C-7.34 3 -6.68 3 -6 3 C-6 2.01 -6 1.02 -6 0 C-2.25 -1.125 -2.25 -1.125 0 0 Z " fill="#09B29D" transform="translate(194,351)"/>
<path d="M0 0 C2.97 0.33 5.94 0.66 9 1 C9.33 1.99 9.66 2.98 10 4 C10.99 4.33 11.98 4.66 13 5 C12.01 5.495 12.01 5.495 11 6 C8.3984375 5.00390625 8.3984375 5.00390625 5.375 3.5625 C3.87066406 2.85287109 3.87066406 2.85287109 2.3359375 2.12890625 C1.56507813 1.75636719 0.79421875 1.38382812 0 1 C0 0.67 0 0.34 0 0 Z " fill="#58D7A6" transform="translate(341,398)"/>
<path d="M0 0 C3.27286682 2.7819368 4.96427697 6.27954067 7 10 C6.01 10.495 6.01 10.495 5 11 C1.92893485 9.46446743 1.32812424 7.07883346 0 4 C0 2.68 0 1.36 0 0 Z " fill="#4CCFBD" transform="translate(206,284)"/>
<path d="M0 0 C0.99 0.66 1.98 1.32 3 2 C5.62531524 2.16713569 5.62531524 2.16713569 8 2 C4.63576723 4.96052484 1.30840713 5.92289822 -3 7 C-3 6.34 -3 5.68 -3 5 C-2.01 5 -1.02 5 0 5 C0 3.35 0 1.7 0 0 Z " fill="#4FC4C9" transform="translate(216,188)"/>
<path d="M0 0 C0 0.66 0 1.32 0 2 C-1.26691507 2.67408308 -2.53870749 3.33900497 -3.8125 4 C-4.52019531 4.37125 -5.22789062 4.7425 -5.95703125 5.125 C-8 6 -8 6 -11 6 C-11 5.34 -11 4.68 -11 4 C-10.01 3.67 -9.02 3.34 -8 3 C-7.67 2.34 -7.34 1.68 -7 1 C-4.61370553 0.38812962 -2.46459429 0 0 0 Z " fill="#52D0B4" transform="translate(163,395)"/>
<path d="M0 0 C3.59391114 1.33488128 6.75490696 2.96022723 10 5 C6.92677456 5.91058531 4.19902639 6.08886184 1 6 C0.67 4.02 0.34 2.04 0 0 Z " fill="#4ECDB5" transform="translate(232,311)"/>
<path d="M0 0 C0.66 0 1.32 0 2 0 C2 0.99 2 1.98 2 3 C1.34 3 0.68 3 0 3 C-0.66 4.32 -1.32 5.64 -2 7 C-3.65 6.67 -5.3 6.34 -7 6 C-6.21625 5.38125 -5.4325 4.7625 -4.625 4.125 C-2.03162353 2.10141339 -2.03162353 2.10141339 0 0 Z " fill="#3BAEA4" transform="translate(270,308)"/>
<path d="M0 0 C0.66 0 1.32 0 2 0 C2 0.66 2 1.32 2 2 C2.99 2 3.98 2 5 2 C5.33 2.99 5.66 3.98 6 5 C7.49985609 6.66710346 7.49985609 6.66710346 9 8 C8.67 8.99 8.34 9.98 8 11 C6.66375099 9.35653302 5.33107149 7.71016314 4 6.0625 C3.2575 5.14597656 2.515 4.22945313 1.75 3.28515625 C0 1 0 1 0 0 Z " fill="#5DD5C3" transform="translate(187,309)"/>
<path d="M0 0 C0.99 0.33 1.98 0.66 3 1 C3 4.96 3 8.92 3 13 C2.34 12.67 1.68 12.34 1 12 C0.5859375 9.27734375 0.5859375 9.27734375 0.375 5.9375 C0.30023438 4.83277344 0.22546875 3.72804688 0.1484375 2.58984375 C0.09945312 1.73519531 0.05046875 0.88054687 0 0 Z " fill="#2CCEC2" transform="translate(172,274)"/>
<path d="M0 0 C0.33 0 0.66 0 1 0 C2.04350941 6.95253862 2.46505172 11.7629069 -1 18 C-1.33 18 -1.66 18 -2 18 C-1.855625 16.88625 -1.71125 15.7725 -1.5625 14.625 C-0.95203629 9.75873212 -0.47014775 4.88153414 0 0 Z " fill="#61DAC3" transform="translate(302,253)"/>
<path d="M0 0 C2.0625 0.4375 2.0625 0.4375 4 1 C3.01 1 2.02 1 1 1 C1 1.99 1 2.98 1 4 C-1.64 4.99 -4.28 5.98 -7 7 C-7 6.01 -7 5.02 -7 4 C-6.030625 3.525625 -5.06125 3.05125 -4.0625 2.5625 C-1.19522563 1.29806053 -1.19522563 1.29806053 0 0 Z " fill="#2EC3C9" transform="translate(212,192)"/>
<path d="M0 0 C-2 3 -2 3 -4.3828125 3.51171875 C-5.28773438 3.56972656 -6.19265625 3.62773437 -7.125 3.6875 C-8.03507813 3.75324219 -8.94515625 3.81898438 -9.8828125 3.88671875 C-10.93082031 3.94279297 -10.93082031 3.94279297 -12 4 C-4.76775432 -1.58925144 -4.76775432 -1.58925144 0 0 Z " fill="#3EA7B6" transform="translate(206,166)"/>
<path d="M0 0 C0 0.66 0 1.32 0 2 C-2.64738916 3.4606285 -3.89448334 4 -7 4 C-7 4.66 -7 5.32 -7 6 C-8.98 6.99 -8.98 6.99 -11 8 C-11.33 7.01 -11.66 6.02 -12 5 C-10.37750059 4.16180842 -8.75191503 3.3295884 -7.125 2.5 C-6.22007812 2.0359375 -5.31515625 1.571875 -4.3828125 1.09375 C-2 0 -2 0 0 0 Z " fill="#4DC4C6" transform="translate(303,119)"/>
<path d="M0 0 C1.65 0 3.3 0 5 0 C5 0.66 5 1.32 5 2 C6.65 2.33 8.3 2.66 10 3 C7.24921116 3.91692961 5.64051087 4.10886083 2.8125 4.0625 C0.9253125 4.0315625 0.9253125 4.0315625 -1 4 C-0.67 2.68 -0.34 1.36 0 0 Z " fill="#0ECBEB" transform="translate(181,114)"/>
<path d="M0 0 C2.125 0.375 2.125 0.375 4 1 C3.67 1.66 3.34 2.32 3 3 C3.9590625 3.1546875 3.9590625 3.1546875 4.9375 3.3125 C5.618125 3.539375 6.29875 3.76625 7 4 C7.33 4.99 7.66 5.98 8 7 C4.08788267 5.84414715 1.1254959 4.64465038 -2 2 C-1.34 1.34 -0.68 0.68 0 0 Z " fill="#3CD297" transform="translate(356,402)"/>
<path d="M0 0 C-0.33 0.99 -0.66 1.98 -1 3 C-3.06640625 3.73046875 -3.06640625 3.73046875 -5.5625 4.1875 C-6.38878906 4.34605469 -7.21507812 4.50460937 -8.06640625 4.66796875 C-9.02353516 4.83232422 -9.02353516 4.83232422 -10 5 C-5.16129032 0 -5.16129032 0 0 0 Z " fill="#2EBDA3" transform="translate(181,355)"/>
<path d="M0 0 C0.66 0 1.32 0 2 0 C1.69381595 3.67420866 1.24228216 4.78135513 -1.5625 7.3125 C-2.366875 7.869375 -3.17125 8.42625 -4 9 C-4 7.35 -4 5.7 -4 4 C-2.68 3.67 -1.36 3.34 0 3 C0 2.01 0 1.02 0 0 Z " fill="#35C8A4" transform="translate(307,311)"/>
<path d="M0 0 C3.07454047 0.07090135 6.01122299 0.2475065 9 1 C11.0625 3.5625 11.0625 3.5625 12 6 C7.76570244 4.68938409 3.92592596 3.05643741 0 1 C0 0.67 0 0.34 0 0 Z " fill="#52CFAD" transform="translate(256,358)"/>
<path d="M0 0 C1.48285242 0.95262034 2.96118201 1.91228405 4.4375 2.875 C5.67306641 3.67550781 5.67306641 3.67550781 6.93359375 4.4921875 C9 6 9 6 10 8 C6.62537285 7.45276317 4.91765 6.9451 2 5 C0.8125 2.375 0.8125 2.375 0 0 Z " fill="#44D0BA" transform="translate(222,303)"/>
<path d="M0 0 C-1.28913487 0.67154933 -2.58140204 1.33708859 -3.875 2 C-4.59429687 2.37125 -5.31359375 2.7425 -6.0546875 3.125 C-8 4 -8 4 -10 4 C-10.33 3.01 -10.66 2.02 -11 1 C-4.03571429 -1.27678571 -4.03571429 -1.27678571 0 0 Z " fill="#47B1BB" transform="translate(238,184)"/>
<path d="M0 0 C5.66153846 1.47692308 5.66153846 1.47692308 7.375 4.125 C7.58125 4.74375 7.7875 5.3625 8 6 C7.34 6 6.68 6 6 6 C6 5.34 6 4.68 6 4 C3.69 4.33 1.38 4.66 -1 5 C-0.67 3.35 -0.34 1.7 0 0 Z " fill="#32CEC9" transform="translate(291,163)"/>
<path d="M0 0 C0.8353125 0.556875 0.8353125 0.556875 1.6875 1.125 C0.6975 2.61 0.6975 2.61 -0.3125 4.125 C-1.6325 4.125 -2.9525 4.125 -4.3125 4.125 C-4.3125 3.465 -4.3125 2.805 -4.3125 2.125 C-5.3025 1.795 -6.2925 1.465 -7.3125 1.125 C-2.88173077 -1.09038462 -2.88173077 -1.09038462 0 0 Z " fill="#04D0DB" transform="translate(212.3125,152.875)"/>
<path d="M0 0 C1.98 0.66 3.96 1.32 6 2 C3 4 3 4 1 5 C0.67 5.66 0.34 6.32 0 7 C-1 6 -1 6 -1.125 3.5 C-1 1 -1 1 0 0 Z " fill="#06CFF0" transform="translate(145,97)"/>
<path d="M0 0 C0 0.66 0 1.32 0 2 C0.99 2.33 1.98 2.66 3 3 C1.1875 4.0625 1.1875 4.0625 -1 5 C-1.99 4.67 -2.98 4.34 -4 4 C-5.33106622 3.65772583 -6.66400079 3.32248257 -8 3 C-2.25 0 -2.25 0 0 0 Z " fill="#36B3A9" transform="translate(196,347)"/>
<path d="M0 0 C0.33 1.32 0.66 2.64 1 4 C0.34 4 -0.32 4 -1 4 C-1 4.66 -1 5.32 -1 6 C-1.99 6.66 -2.98 7.32 -4 8 C-4.99 7.67 -5.98 7.34 -7 7 C-4.69 4.69 -2.38 2.38 0 0 Z " fill="#51CBB2" transform="translate(283,297)"/>
<path d="M0 0 C0.99 0.33 1.98 0.66 3 1 C1.69593116 3.01920337 0.36176581 5.01924973 -1 7 C-1.33 7 -1.66 7 -2 7 C-2 5.02 -2 3.04 -2 1 C-1.34 0.67 -0.68 0.34 0 0 Z M-5 7 C-4.01 7.33 -3.02 7.66 -2 8 C-2.99 8.33 -3.98 8.66 -5 9 C-5 8.34 -5 7.68 -5 7 Z " fill="#16CA9F" transform="translate(293,286)"/>
<path d="M0 0 C3.3 1.65 6.6 3.3 10 5 C10 5.66 10 6.32 10 7 C5.76570244 5.68938409 1.92592596 4.05643741 -2 2 C-1.34 1.34 -0.68 0.68 0 0 Z " fill="#0CC3CF" transform="translate(226,163)"/>
<path d="M0 0 C4.08718695 -0.24042276 7.17679443 0.57741188 11 2 C11 2.99 11 3.98 11 5 C7.08406554 4.21681311 3.63593365 2.60820142 0 1 C0 0.67 0 0.34 0 0 Z " fill="#50D6E3" transform="translate(159,135)"/>
<path d="M0 0 C1.4540625 0.0309375 1.4540625 0.0309375 2.9375 0.0625 C2.9375 0.7225 2.9375 1.3825 2.9375 2.0625 C-0.5275 3.5475 -0.5275 3.5475 -4.0625 5.0625 C-4.0625 0.08290816 -4.0625 0.08290816 0 0 Z " fill="#10C8C3" transform="translate(366.0625,90.9375)"/>
<path d="M0 0 C1.65 0 3.3 0 5 0 C5 0.66 5 1.32 5 2 C6.32 2.66 7.64 3.32 9 4 C7.3125 4.8125 7.3125 4.8125 5 5 C2.25 2.5625 2.25 2.5625 0 0 Z " fill="#14C0A1" transform="translate(246,321)"/>
<path d="M0 0 C0.33 0 0.66 0 1 0 C0.67 2.97 0.34 5.94 0 9 C-1.32 9.33 -2.64 9.66 -4 10 C-2.66666667 6.66666667 -1.33333333 3.33333333 0 0 Z " fill="#09D3A0" transform="translate(324,279)"/>
<path d="M0 0 C2.31 0.33 4.62 0.66 7 1 C7 1.99 7 2.98 7 4 C5.68 3.34 4.36 2.68 3 2 C3 2.66 3 3.32 3 4 C2.01 3.67 1.02 3.34 0 3 C-0.99 3.495 -0.99 3.495 -2 4 C-1.34 2.68 -0.68 1.36 0 0 Z " fill="#058EA5" transform="translate(213,161)"/>
<path d="M0 0 C-0.33 0.99 -0.66 1.98 -1 3 C-4.80269732 4.6900877 -7.05272168 5.19873962 -11 4 C-9.73308493 3.32591692 -8.46129251 2.66099503 -7.1875 2 C-6.47980469 1.62875 -5.77210938 1.2575 -5.04296875 0.875 C-3 0 -3 0 0 0 Z " fill="#54D2CE" transform="translate(332,106)"/>
<path d="M0 0 C3.14737182 0.69941596 6.02588876 1.76078698 9 3 C9 3.66 9 4.32 9 5 C6.03 4.67 3.06 4.34 0 4 C0 2.68 0 1.36 0 0 Z " fill="#07D0F2" transform="translate(131,91)"/>
<path d="M0 0 C2.6875 -0.3125 2.6875 -0.3125 6 0 C8.875 2.5 8.875 2.5 11 5 C9.53932801 4.54917531 8.08151968 4.08906463 6.625 3.625 C5.81289063 3.36976563 5.00078125 3.11453125 4.1640625 2.8515625 C2 2 2 2 0 0 Z " fill="#58D5B0" transform="translate(292,375)"/>
<path d="M0 0 C0 1.65 0 3.3 0 5 C-2.64 4.01 -5.28 3.02 -8 2 C-8 1.67 -8 1.34 -8 1 C-5.23735711 0.40267181 -2.83967231 0 0 0 Z " fill="#4FD5AD" transform="translate(287,368)"/>
<path d="M0 0 C3.96 1.98 3.96 1.98 8 4 C8 4.33 8 4.66 8 5 C6.02 5.33 4.04 5.66 2 6 C1.34 4.02 0.68 2.04 0 0 Z " fill="#49A9A7" transform="translate(215,346)"/>
<path d="M0 0 C3.91593446 0.78318689 7.36406635 2.39179858 11 4 C11 4.33 11 4.66 11 5 C9.35 5 7.7 5 6 5 C6 4.34 6 3.68 6 3 C4.35 3 2.7 3 1 3 C0.67 2.01 0.34 1.02 0 0 Z " fill="#57D1B0" transform="translate(299,345)"/>
<path d="M0 0 C0.33 0 0.66 0 1 0 C0.03644647 9.41002278 0.03644647 9.41002278 -1 14 C-1.33 14 -1.66 14 -2 14 C-2 10.7 -2 7.4 -2 4 C-1.34 4 -0.68 4 0 4 C0 2.68 0 1.36 0 0 Z " fill="#61D2BB" transform="translate(330,265)"/>
<path d="M0 0 C1.46067199 0.45082469 2.91848032 0.91093537 4.375 1.375 C5.18710938 1.63023438 5.99921875 1.88546875 6.8359375 2.1484375 C9 3 9 3 11 5 C6.91281305 5.24042276 3.82320557 4.42258812 0 3 C0 2.01 0 1.02 0 0 Z " fill="#4ECDDB" transform="translate(203,122)"/>
<path d="M0 0 C2.31 0.33 4.62 0.66 7 1 C7.33 1.99 7.66 2.98 8 4 C6.68 4.33 5.36 4.66 4 5 C3.67 4.01 3.34 3.02 3 2 C2.01 1.67 1.02 1.34 0 1 C0 0.67 0 0.34 0 0 Z " fill="#0ECF8E" transform="translate(312,353)"/>
<path d="M0 0 C0.99 0.495 0.99 0.495 2 1 C1.01 1.495 1.01 1.495 0 2 C0 1.34 0 0.68 0 0 Z M-1 2 C-0.34 2.99 0.32 3.98 1 5 C-0.98 5.66 -2.96 6.32 -5 7 C-4.6875 5.0625 -4.6875 5.0625 -4 3 C-3.01 2.67 -2.02 2.34 -1 2 Z " fill="#02A297" transform="translate(270,311)"/>
<path d="M0 0 C2.31 1.98 4.62 3.96 7 6 C6.01 6.495 6.01 6.495 5 7 C2.375 5.8125 2.375 5.8125 0 4 C0 2.68 0 1.36 0 0 Z " fill="#55D0C0" transform="translate(215,296)"/>
<path d="M0 0 C0.66 0 1.32 0 2 0 C2 0.66 2 1.32 2 2 C2.66 2.33 3.32 2.66 4 3 C4.40729228 5.32156597 4.74438677 7.6568787 5 10 C1.55783328 7.3401439 1.00495326 4.09711714 0 0 Z " fill="#58C8BC" transform="translate(175,288)"/>
<path d="M0 0 C2.76276177 0.52268466 5.3260876 1.10869587 8 2 C8 2.99 8 3.98 8 5 C2.25 3.375 2.25 3.375 0 0 Z " fill="#38CFD4" transform="translate(200,153)"/>
<path d="M0 0 C6.625 -0.25 6.625 -0.25 10 2 C9.67 2.33 9.34 2.66 9 3 C7.1875 2.94921875 7.1875 2.94921875 5 2.6875 C4.278125 2.60886719 3.55625 2.53023437 2.8125 2.44921875 C1.9153125 2.22685547 1.9153125 2.22685547 1 2 C0.67 1.34 0.34 0.68 0 0 Z " fill="#308FA1" transform="translate(272,144)"/>
<path d="M0 0 C4.95 0.99 4.95 0.99 10 2 C9.34 2.66 8.68 3.32 8 4 C5.17042171 3.63723355 2.70915709 2.90305236 0 2 C0 1.34 0 0.68 0 0 Z " fill="#29CAD1" transform="translate(236,139)"/>
<path d="M0 0 C0 0.66 0 1.32 0 2 C-0.66 2 -1.32 2 -2 2 C-2 2.66 -2 3.32 -2 4 C-4.64 4.33 -7.28 4.66 -10 5 C-8.28489314 1.56978628 -3.75681361 0 0 0 Z " fill="#50B8BF" transform="translate(290,125)"/>
<path d="M0 0 C-1.32 1.65 -2.64 3.3 -4 5 C-5.32 4.34 -6.64 3.68 -8 3 C-7 1 -7 1 -4.5625 -0.1875 C-2 -1 -2 -1 0 0 Z " fill="#0DBEC6" transform="translate(303,122)"/>
<path d="M0 0 C2.97 0.33 5.94 0.66 9 1 C9 1.99 9 2.98 9 4 C7.1875 4.6875 7.1875 4.6875 5 5 C3.375 3.6875 3.375 3.6875 2 2 C1.34 1.34 0.68 0.68 0 0 Z " fill="#10CC88" transform="translate(318,385)"/>
<path d="M0 0 C1.98 0.66 3.96 1.32 6 2 C6 2.99 6 3.98 6 5 C3 5 3 5 1.3125 3.625 C0 2 0 2 0 0 Z " fill="#60ADAB" transform="translate(232,356)"/>
<path d="M0 0 C0 0.66 0 1.32 0 2 C-2.70879335 3.35439668 -5.00933268 3.06501451 -8 3 C-8 2.34 -8 1.68 -8 1 C-5.07175348 0.02391783 -3.04386724 -0.08226668 0 0 Z " fill="#28A8AF" transform="translate(228,187)"/>
<path d="M0 0 C2.475 0.495 2.475 0.495 5 1 C5 1.66 5 2.32 5 3 C5.99 3 6.98 3 8 3 C8 3.66 8 4.32 8 5 C8.99 5.33 9.98 5.66 11 6 C9.68 6 8.36 6 7 6 C7 5.34 7 4.68 7 4 C6.21625 3.896875 5.4325 3.79375 4.625 3.6875 C2 3 2 3 0 0 Z " fill="#12BBC4" transform="translate(242,172)"/>
<path d="M0 0 C2.97 0.99 5.94 1.98 9 3 C9 3.33 9 3.66 9 4 C6.36 4 3.72 4 1 4 C0.67 2.68 0.34 1.36 0 0 Z " fill="#60D5D6" transform="translate(274,155)"/>
<path d="M0 0 C2.97 0.495 2.97 0.495 6 1 C5.67 1.66 5.34 2.32 5 3 C2.67843403 3.40729228 0.3431213 3.74438677 -2 4 C-2 3.34 -2 2.68 -2 2 C-1.34 2 -0.68 2 0 2 C0 1.34 0 0.68 0 0 Z " fill="#46CFC8" transform="translate(338,133)"/>
<path d="M0 0 C0.103125 0.639375 0.20625 1.27875 0.3125 1.9375 C0.539375 2.618125 0.76625 3.29875 1 4 C1.99 4.33 2.98 4.66 4 5 C3.34 5.66 2.68 6.32 2 7 C-0.125 6.625 -0.125 6.625 -2 6 C-2 5.34 -2 4.68 -2 4 C-1.34 4 -0.68 4 0 4 C0 2.68 0 1.36 0 0 Z " fill="#0ACA9F" transform="translate(284,297)"/>
<path d="M0 0 C3.91211733 1.15585285 6.8745041 2.35534962 10 5 C8.51793505 4.745504 7.03931385 4.47088238 5.5625 4.1875 C4.73878906 4.03667969 3.91507812 3.88585937 3.06640625 3.73046875 C2.38449219 3.48941406 1.70257813 3.24835938 1 3 C0.67 2.01 0.34 1.02 0 0 Z " fill="#5BCFC3" transform="translate(321,177)"/>
<path d="M0 0 C-2.62198774 2.15377564 -4.64404172 3.40072174 -8 4 C-8.33 3.01 -8.66 2.02 -9 1 C-5.8035914 -0.06546953 -3.34252724 -0.07427838 0 0 Z " fill="#4BAAB5" transform="translate(306,151)"/>
<path d="M0 0 C0.99 0.495 0.99 0.495 2 1 C1.01 1.495 1.01 1.495 0 2 C0 1.34 0 0.68 0 0 Z M-4 2 C-2.68 2.33 -1.36 2.66 0 3 C0 3.99 0 4.98 0 6 C-0.99 6.33 -1.98 6.66 -3 7 C-3.33 5.35 -3.66 3.7 -4 2 Z " fill="#04AAB6" transform="translate(288,127)"/>
<path d="M0 0 C-0.639375 0.28875 -1.27875 0.5775 -1.9375 0.875 C-4.15206079 1.82823451 -4.15206079 1.82823451 -5 4 C-6.32 3.34 -7.64 2.68 -9 2 C-8.67 1.34 -8.34 0.68 -8 0 C-4.71585695 -0.95067299 -3.30306592 -1.10102197 0 0 Z " fill="#11C8C1" transform="translate(347,102)"/>
<path d="M0 0 C0.33 0.99 0.66 1.98 1 3 C-5.75 5.125 -5.75 5.125 -8 4 C-5.36 2.68 -2.72 1.36 0 0 Z " fill="#19C9A1" transform="translate(196,377)"/>
<path d="M0 0 C1.65 0 3.3 0 5 0 C5.33 1.65 5.66 3.3 6 5 C2.83884224 3.63016497 2.0072908 3.0109362 0 0 Z " fill="#5DD6C4" transform="translate(196,320)"/>
<path d="M0 0 C0.66 0 1.32 0 2 0 C1.6875 2.375 1.6875 2.375 1 5 C0.01 5.66 -0.98 6.32 -2 7 C-2 5.35 -2 3.7 -2 2 C-1.34 2 -0.68 2 0 2 C0 1.34 0 0.68 0 0 Z " fill="#57D2B4" transform="translate(311,307)"/>
<path d="M0 0 C2.31 0.33 4.62 0.66 7 1 C6.67 1.99 6.34 2.98 6 4 C3.69 3.34 1.38 2.68 -1 2 C-0.67 1.34 -0.34 0.68 0 0 Z " fill="#03D1E0" transform="translate(217,132)"/>
</svg>
